<svg width="24" height="24" viewBox="0 0 24 24" fill="none" xmlns="http://www.w3.org/2000/svg">
<path fill-rule="evenodd" clip-rule="evenodd" d="M1.32447 0C0.592941 0 0 0.592921 0 1.32459V22.6754C0 23.4068 0.592941 24 1.32447 24H12.8191V14.706H9.69129V11.0839H12.8191V8.41279C12.8191 5.31273 14.7125 3.6249 17.4776 3.6249C18.8024 3.6249 19.9407 3.72337 20.2725 3.76765V7.00717L18.3546 7.00811C16.8506 7.00811 16.5595 7.72258 16.5595 8.77132V11.0839H20.1461L19.6793 14.706H16.5595V24H22.6753C23.4068 24 24 23.4068 24 22.6754V1.32C24 0.58833 23.4068 0 22.6753 0H1.32447Z" fill="white"/>
</svg>
