<svg width="200" height="200" viewBox="0 0 200 200" fill="none" xmlns="http://www.w3.org/2000/svg">
<g opacity="0.5">
<path d="M21.5 158.417L21.3333 158.583C19.0833 153.667 17.6666 148.083 17.0833 141.917C17.6666 148 19.25 153.5 21.5 158.417Z" fill="#161616"/>
<path d="M75 86.5C85.9537 86.5 94.8334 77.6203 94.8334 66.6666C94.8334 55.713 85.9537 46.8333 75 46.8333C64.0464 46.8333 55.1667 55.713 55.1667 66.6666C55.1667 77.6203 64.0464 86.5 75 86.5Z" fill="#161616"/>
<path d="M134.917 16.6667H65.0834C34.75 16.6667 16.6667 34.75 16.6667 65.0834V134.917C16.6667 144 18.25 151.917 21.3334 158.583C28.5 174.417 43.8334 183.333 65.0834 183.333H134.917C165.25 183.333 183.333 165.25 183.333 134.917V115.833V65.0834C183.333 34.75 165.25 16.6667 134.917 16.6667ZM169.75 104.167C163.25 98.5834 152.75 98.5834 146.25 104.167L111.583 133.917C105.083 139.5 94.5834 139.5 88.0834 133.917L85.25 131.583C79.3333 126.417 69.9167 125.917 63.25 130.417L32.0834 151.333C30.25 146.667 29.1667 141.25 29.1667 134.917V65.0834C29.1667 41.5834 41.5834 29.1667 65.0834 29.1667H134.917C158.417 29.1667 170.833 41.5834 170.833 65.0834V105.083L169.75 104.167Z" fill="#161616"/>
</g>
</svg>
