<svg width="30" height="31" viewBox="0 0 30 31" fill="none" xmlns="http://www.w3.org/2000/svg">
<g clip-path="url(#clip0_333_1991)">
<mask id="mask0_333_1991" style="mask-type:luminance" maskUnits="userSpaceOnUse" x="0" y="0" width="30" height="31">
<path d="M30 0.790039H0V30.79H30V0.790039Z" fill="white"/>
</mask>
<g mask="url(#mask0_333_1991)">
<path d="M23.7204 6.34088C23.3189 6.34088 22.9922 6.66767 22.9922 7.06921C22.9922 7.47074 23.3189 7.79753 23.7204 7.79753C24.1221 7.79753 24.4488 7.47081 24.4488 7.06921C24.4488 6.66761 24.1221 6.34088 23.7204 6.34088Z" fill="#CC9933"/>
<path d="M15.0007 9.33374C11.4405 9.33374 8.54395 12.2303 8.54395 15.7905C8.54395 19.3508 11.4405 22.2474 15.0007 22.2474C18.5611 22.2474 21.4576 19.3509 21.4576 15.7905C21.4576 12.2303 18.5611 9.33374 15.0007 9.33374Z" fill="#CC9933"/>
<path d="M21.776 0.790039H8.22404C3.6893 0.790039 0 4.47934 0 9.01414V22.566C0 27.1008 3.6893 30.79 8.22404 30.79H21.776C26.3107 30.79 30 27.1008 30 22.566V9.01414C30 4.47934 26.3107 0.790039 21.776 0.790039ZM15 24.0185C10.4628 24.0185 6.77163 20.3273 6.77163 15.79C6.77163 11.2528 10.4628 7.56171 15 7.56171C19.5371 7.56171 23.2285 11.2529 23.2285 15.79C23.2285 20.3272 19.5371 24.0185 15 24.0185ZM23.7206 9.56949C22.3421 9.56949 21.2206 8.448 21.2206 7.06953C21.2206 5.69105 22.3421 4.56951 23.7206 4.56951C25.099 4.56951 26.2205 5.691 26.2205 7.06948C26.2205 8.44795 25.099 9.56949 23.7206 9.56949Z" fill="#CC9933"/>
</g>
</g>
<defs>
<clipPath id="clip0_333_1991">
<rect width="30" height="30" fill="white" transform="translate(0 0.790039)"/>
</clipPath>
</defs>
</svg>
