<svg width="26" height="24" viewBox="0 0 26 24" fill="none" xmlns="http://www.w3.org/2000/svg">
<path fill-rule="evenodd" clip-rule="evenodd" d="M16.9997 12C16.9997 9.79709 15.203 8.00032 13 8.00032C10.7971 8.00032 9.00032 9.79709 9.00032 12C9.00032 14.203 10.7971 15.9997 13 15.9997C15.203 15.9997 16.9997 14.203 16.9997 12ZM19.1558 12C19.1558 15.406 16.406 18.1558 13 18.1558C9.59406 18.1558 6.84427 15.406 6.84427 12C6.84427 8.59406 9.59406 5.84427 13 5.84427C16.406 5.84427 19.1558 8.59406 19.1558 12ZM20.8431 5.59427C20.8431 6.39108 20.2025 7.03166 19.4057 7.03166C18.6089 7.03166 17.9684 6.39108 17.9684 5.59427C17.9684 4.79746 18.6089 4.15687 19.4057 4.15687C20.2025 4.15687 20.8431 4.79746 20.8431 5.59427ZM13 2.1571C11.2502 2.1571 7.50052 2.01644 5.92252 2.64139C5.37569 2.86012 4.96943 3.12574 4.54759 3.54759C4.12574 3.96943 3.86012 4.37569 3.64139 4.92252C3.01644 6.50052 3.1571 10.2502 3.1571 12C3.1571 13.7499 3.01644 17.4996 3.64139 19.0776C3.86012 19.6244 4.12574 20.0306 4.54759 20.4525C4.96943 20.8743 5.37569 21.1399 5.92252 21.3586C7.50052 21.9836 11.2502 21.843 13 21.843C14.7499 21.843 18.4996 21.9836 20.0776 21.3586C20.6244 21.1399 21.0306 20.8743 21.4525 20.4525C21.8743 20.0306 22.1399 19.6244 22.3586 19.0776C22.9836 17.4996 22.843 13.7499 22.843 12C22.843 10.2502 22.9836 6.50052 22.3586 4.92252C22.1399 4.37569 21.8743 3.96943 21.4525 3.54759C21.0306 3.12574 20.6244 2.86012 20.0776 2.64139C18.4996 2.01644 14.7499 2.1571 13 2.1571ZM24.999 12C24.999 13.6562 25.0147 15.2967 24.9209 16.9528C24.8272 18.8745 24.3897 20.5775 22.9836 21.9836C21.5775 23.3897 19.8745 23.8272 17.9528 23.9209C16.2967 24.0147 14.6562 23.999 13 23.999C11.3439 23.999 9.70341 24.0147 8.0473 23.9209C6.12558 23.8272 4.4226 23.3897 3.01646 21.9836C1.61033 20.5775 1.17289 18.8745 1.07915 16.9528C0.985405 15.2967 1.00097 13.6562 1.00097 12C1.00097 10.3439 0.985405 8.70341 1.07915 7.0473C1.17289 5.12558 1.61033 3.4226 3.01646 2.01646C4.4226 0.610327 6.12558 0.17289 8.0473 0.0791465C9.70341 -0.0145954 11.3439 0.000966915 13 0.000966915C14.6562 0.000966915 16.2967 -0.0145954 17.9528 0.0791465C19.8745 0.17289 21.5775 0.610327 22.9836 2.01646C24.3897 3.4226 24.8272 5.12558 24.9209 7.0473C25.0147 8.70341 24.999 10.3439 24.999 12Z" fill="#161616"/>
</svg>
