<svg width="30" height="31" viewBox="0 0 30 31" fill="none" xmlns="http://www.w3.org/2000/svg">
<g clip-path="url(#clip0_333_1976)">
<path d="M0.529889 15.2554L7.44249 17.8354L10.1181 26.4402C10.2893 26.9912 10.9632 27.1949 11.4105 26.8292L15.2636 23.688C15.6676 23.3589 16.2429 23.3425 16.665 23.6489L23.6147 28.6947C24.0933 29.0424 24.7711 28.7802 24.8911 28.202L29.9823 3.7129C30.1132 3.0813 29.4926 2.5544 28.8913 2.787L0.521788 13.7312C-0.178311 14.0012 -0.172212 14.9923 0.529889 15.2554ZM9.68689 16.462L23.1966 8.1413C23.4395 7.9922 23.6892 8.3205 23.4807 8.5139L12.3313 18.8779C11.9394 19.2427 11.6866 19.7309 11.615 20.2608L11.2352 23.0754C11.1849 23.4512 10.657 23.4885 10.5533 23.1248L9.09259 17.9923C8.92529 17.4069 9.16909 16.7817 9.68689 16.462Z" fill="#CC9933"/>
</g>
<defs>
<clipPath id="clip0_333_1976">
<rect width="30" height="30" fill="white" transform="translate(0 0.790039)"/>
</clipPath>
</defs>
</svg>
