<svg width="35" height="24" viewBox="0 0 35 24" fill="none" xmlns="http://www.w3.org/2000/svg">
<path fill-rule="evenodd" clip-rule="evenodd" d="M13.8867 16.4191L23.3398 11.6572L13.8867 6.83813V16.4191ZM17.5 0C24.8632 0 29.7459 0.342813 29.7459 0.342813C30.4295 0.419003 31.9335 0.419091 33.2616 1.79052C33.2616 1.79052 34.3358 2.81903 34.6483 5.18094C35.0194 7.94284 34.9998 10.7048 34.9998 10.7048V13.2952C34.9998 13.2952 35.0194 16.0572 34.6483 18.8191C34.3358 21.1619 33.2616 22.2096 33.2616 22.2096C31.9335 23.562 30.4295 23.5619 29.7459 23.6381C29.7459 23.6381 24.8632 24 17.5 24C8.39852 23.9238 5.60559 23.6572 5.60559 23.6572C4.82435 23.5239 3.06652 23.562 1.73841 22.2096C1.73841 22.2096 0.664189 21.1619 0.351691 18.8191C-0.0193975 16.0572 0.000178297 13.2952 0.000178297 13.2952V10.7048C0.000178297 10.7048 -0.0193975 7.94284 0.351691 5.18094C0.664189 2.81903 1.73841 1.79052 1.73841 1.79052C3.06652 0.419091 4.57038 0.419003 5.25397 0.342813C5.25397 0.342813 10.1368 0 17.5 0Z" fill="#161616"/>
</svg>
