<svg width="680" height="450" viewBox="0 0 680 450" fill="none" xmlns="http://www.w3.org/2000/svg">
<rect x="0.5" y="0.5" width="679" height="449" fill="#C4C4C4"/>
<rect x="0.5" y="0.5" width="679" height="449" stroke="white"/>
<g opacity="0.5">
<path d="M261.5 283.417L261.333 283.583C259.083 278.667 257.667 273.083 257.083 266.917C257.667 273 259.25 278.5 261.5 283.417Z" fill="#161616"/>
<path d="M315 211.5C325.954 211.5 334.833 202.62 334.833 191.667C334.833 180.713 325.954 171.833 315 171.833C304.046 171.833 295.167 180.713 295.167 191.667C295.167 202.62 304.046 211.5 315 211.5Z" fill="#161616"/>
<path d="M374.917 141.667H305.083C274.75 141.667 256.667 159.75 256.667 190.083V259.917C256.667 269 258.25 276.917 261.333 283.583C268.5 299.417 283.833 308.333 305.083 308.333H374.917C405.25 308.333 423.333 290.25 423.333 259.917V240.833V190.083C423.333 159.75 405.25 141.667 374.917 141.667ZM409.75 229.167C403.25 223.583 392.75 223.583 386.25 229.167L351.583 258.917C345.083 264.5 334.583 264.5 328.083 258.917L325.25 256.583C319.333 251.417 309.917 250.917 303.25 255.417L272.083 276.333C270.25 271.667 269.167 266.25 269.167 259.917V190.083C269.167 166.583 281.583 154.167 305.083 154.167H374.917C398.417 154.167 410.833 166.583 410.833 190.083V230.083L409.75 229.167Z" fill="#161616"/>
</g>
<path d="M49.6568 335.3V356H45.2768V343.7C45.2768 343.24 45.2968 342.78 45.3368 342.32C45.3768 341.84 45.4368 341.37 45.5168 340.91H45.3368C45.1768 341.39 44.9968 341.86 44.7968 342.32C44.5968 342.76 44.3868 343.2 44.1668 343.64L37.0568 356H32.5868V335.3H36.9668V347.36C36.9668 347.82 36.9368 348.3 36.8768 348.8C36.8368 349.28 36.7868 349.77 36.7268 350.27H36.8768C37.0568 349.79 37.2468 349.32 37.4468 348.86C37.6668 348.4 37.8968 347.96 38.1368 347.54L45.1868 335.3H49.6568ZM58.5635 335.3V356H53.9735V335.3H58.5635ZM66.2435 343.25V346.7H58.3235V343.25H66.2435ZM70.5035 335.3V356H65.9135V335.3H70.5035ZM85.3929 336.44C87.5729 336.44 89.4129 336.59 90.9129 336.89C92.4129 337.17 93.6229 337.65 94.5429 338.33C95.4629 339.01 96.1229 339.93 96.5229 341.09C96.9429 342.23 97.1529 343.66 97.1529 345.38C97.1529 347.06 96.9429 348.46 96.5229 349.58C96.1229 350.7 95.4629 351.59 94.5429 352.25C93.6229 352.91 92.4129 353.39 90.9129 353.69C89.4129 353.97 87.5729 354.11 85.3929 354.11C83.2329 354.11 81.3929 353.97 79.8729 353.69C78.3729 353.39 77.1629 352.91 76.2429 352.25C75.3429 351.59 74.6829 350.7 74.2629 349.58C73.8629 348.46 73.6629 347.06 73.6629 345.38C73.6629 343.66 73.8629 342.23 74.2629 341.09C74.6829 339.93 75.3429 339.01 76.2429 338.33C77.1629 337.65 78.3729 337.17 79.8729 336.89C81.3929 336.59 83.2329 336.44 85.3929 336.44ZM85.3929 339.83C83.9529 339.83 82.7729 339.91 81.8529 340.07C80.9329 340.21 80.2129 340.49 79.6929 340.91C79.1729 341.31 78.8029 341.88 78.5829 342.62C78.3829 343.34 78.2829 344.26 78.2829 345.38C78.2829 346.48 78.3829 347.38 78.5829 348.08C78.8029 348.78 79.1729 349.33 79.6929 349.73C80.2129 350.11 80.9329 350.38 81.8529 350.54C82.7729 350.68 83.9529 350.75 85.3929 350.75C86.8329 350.75 88.0129 350.68 88.9329 350.54C89.8529 350.38 90.5729 350.11 91.0929 349.73C91.6329 349.33 92.0029 348.78 92.2029 348.08C92.4229 347.38 92.5329 346.48 92.5329 345.38C92.5329 344.26 92.4229 343.34 92.2029 342.62C92.0029 341.88 91.6329 341.31 91.0929 340.91C90.5729 340.49 89.8529 340.21 88.9329 340.07C88.0129 339.91 86.8329 339.83 85.3929 339.83ZM87.7029 333.8V338.15L87.4929 339.02V351.56L87.7029 352.58V356.75H83.1129V352.58L83.3229 351.56V339.02L83.1129 338.15V333.8H87.7029ZM108.628 334.88C110.268 334.88 111.658 335.06 112.798 335.42C113.938 335.76 114.848 336.34 115.528 337.16C116.228 337.96 116.738 339.06 117.058 340.46C117.378 341.84 117.538 343.57 117.538 345.65C117.538 347.73 117.378 349.47 117.058 350.87C116.738 352.25 116.228 353.35 115.528 354.17C114.848 354.97 113.938 355.55 112.798 355.91C111.658 356.25 110.268 356.42 108.628 356.42C106.988 356.42 105.598 356.25 104.458 355.91C103.318 355.55 102.398 354.97 101.698 354.17C100.998 353.35 100.488 352.25 100.168 350.87C99.8476 349.47 99.6876 347.73 99.6876 345.65C99.6876 343.57 99.8476 341.84 100.168 340.46C100.488 339.06 100.998 337.96 101.698 337.16C102.398 336.34 103.318 335.76 104.458 335.42C105.598 335.06 106.988 334.88 108.628 334.88ZM108.628 338.51C107.568 338.51 106.738 338.72 106.138 339.14C105.558 339.56 105.138 340.29 104.878 341.33C104.638 342.35 104.518 343.79 104.518 345.65C104.518 347.49 104.638 348.93 104.878 349.97C105.138 351.01 105.558 351.74 106.138 352.16C106.738 352.58 107.568 352.79 108.628 352.79C109.668 352.79 110.478 352.58 111.058 352.16C111.658 351.74 112.078 351.01 112.318 349.97C112.578 348.93 112.708 347.49 112.708 345.65C112.708 343.79 112.578 342.35 112.318 341.33C112.078 340.29 111.658 339.56 111.058 339.14C110.478 338.72 109.668 338.51 108.628 338.51ZM129.072 335C130.992 335 132.502 335.2 133.602 335.6C134.702 336 135.482 336.69 135.942 337.67C136.422 338.65 136.662 340.02 136.662 341.78C136.662 343.54 136.432 344.91 135.972 345.89C135.532 346.87 134.802 347.56 133.782 347.96C132.762 348.34 131.382 348.53 129.642 348.53C128.722 348.53 127.822 348.49 126.942 348.41C126.062 348.33 125.242 348.23 124.482 348.11C123.722 347.99 123.072 347.87 122.532 347.75C121.992 347.61 121.622 347.48 121.422 347.36L121.512 345.08C122.692 345.08 123.912 345.08 125.172 345.08C126.452 345.08 127.712 345.08 128.952 345.08C129.752 345.06 130.372 344.96 130.812 344.78C131.272 344.6 131.592 344.27 131.772 343.79C131.972 343.31 132.072 342.64 132.072 341.78C132.072 340.9 131.972 340.22 131.772 339.74C131.592 339.26 131.272 338.93 130.812 338.75C130.372 338.55 129.752 338.45 128.952 338.45C127.112 338.45 125.532 338.46 124.212 338.48C122.892 338.5 122.002 338.54 121.542 338.6L121.092 335.3C121.932 335.2 122.722 335.13 123.462 335.09C124.202 335.05 125.002 335.03 125.862 335.03C126.742 335.01 127.812 335 129.072 335ZM125.682 335.3V356H121.092V335.3H125.682ZM160.905 335.3C161.985 335.3 162.545 335.86 162.585 336.98L163.365 356H159.135L158.445 338.84H157.905L154.575 351.74C154.395 352.7 153.795 353.18 152.775 353.18H149.895C148.875 353.18 148.255 352.7 148.035 351.74L144.705 338.84H144.195L143.565 356H139.305L140.085 336.98C140.125 335.86 140.695 335.3 141.795 335.3H146.085C147.065 335.3 147.665 335.79 147.885 336.77L150.555 347.18C150.675 347.66 150.775 348.15 150.855 348.65C150.935 349.13 151.025 349.62 151.125 350.12H151.515C151.615 349.62 151.705 349.13 151.785 348.65C151.885 348.15 151.985 347.65 152.085 347.15L154.725 336.77C154.925 335.79 155.525 335.3 156.525 335.3H160.905ZM177.104 335.3C177.484 335.3 177.814 335.41 178.094 335.63C178.394 335.85 178.594 336.14 178.694 336.5L184.694 356H180.014L175.784 340.79C175.704 340.45 175.624 340.11 175.544 339.77C175.464 339.41 175.394 339.07 175.334 338.75H174.524C174.464 339.07 174.394 339.41 174.314 339.77C174.254 340.11 174.174 340.45 174.074 340.79L169.844 356H165.134L171.164 336.5C171.264 336.14 171.454 335.85 171.734 335.63C172.034 335.41 172.374 335.3 172.754 335.3H177.104ZM180.284 347.09V350.54H169.544V347.09H180.284ZM186.893 356V335.3H191.483V356H186.893ZM191.243 356V352.79H205.433V356H191.243ZM198.443 356V335.3H203.033V356H198.443ZM202.163 360.53L201.773 355.79H205.433V360.53H202.163ZM225.35 335.3V356H220.97V343.7C220.97 343.24 220.99 342.78 221.03 342.32C221.07 341.84 221.13 341.37 221.21 340.91H221.03C220.87 341.39 220.69 341.86 220.49 342.32C220.29 342.76 220.08 343.2 219.86 343.64L212.75 356H208.28V335.3H212.66V347.36C212.66 347.82 212.63 348.3 212.57 348.8C212.53 349.28 212.48 349.77 212.42 350.27H212.57C212.75 349.79 212.94 349.32 213.14 348.86C213.36 348.4 213.59 347.96 213.83 347.54L220.88 335.3H225.35ZM236.747 335C237.967 335 239.007 335.01 239.867 335.03C240.727 335.03 241.517 335.05 242.237 335.09C242.957 335.13 243.717 335.2 244.517 335.3L244.097 338.6C243.637 338.54 242.767 338.5 241.487 338.48C240.227 338.46 238.677 338.45 236.837 338.45C236.077 338.45 235.477 338.54 235.037 338.72C234.597 338.9 234.277 339.21 234.077 339.65C233.897 340.07 233.807 340.68 233.807 341.48C233.807 342.2 233.887 342.79 234.047 343.25C234.227 343.71 234.537 344.05 234.977 344.27C235.417 344.47 236.017 344.57 236.777 344.57H243.857L243.947 347.96C243.567 347.96 243.177 347.97 242.777 347.99C242.377 347.99 241.907 348 241.367 348.02C240.847 348.02 240.217 348.02 239.477 348.02C238.757 348.02 237.897 348.02 236.897 348.02C236.297 348.02 235.827 348.15 235.487 348.41C235.147 348.67 234.887 349.14 234.707 349.82L233.177 356H228.347L230.087 349.64C230.247 348.92 230.497 348.35 230.837 347.93C231.197 347.51 231.577 347.2 231.977 347C232.397 346.78 232.787 346.64 233.147 346.58L233.117 346.4C232.137 346.28 231.357 345.99 230.777 345.53C230.217 345.05 229.807 344.44 229.547 343.7C229.307 342.96 229.187 342.13 229.187 341.21C229.187 339.65 229.447 338.42 229.967 337.52C230.487 336.62 231.307 335.98 232.427 335.6C233.547 335.2 234.987 335 236.747 335ZM244.517 335.3V356H239.927V335.3H244.517ZM261.662 334.94C263.102 334.94 264.342 335.07 265.382 335.33C266.422 335.57 267.232 336.04 267.812 336.74C268.392 337.44 268.682 338.45 268.682 339.77C268.682 340.55 268.582 341.28 268.382 341.96C268.202 342.62 267.862 343.31 267.362 344.03C266.882 344.75 266.182 345.6 265.262 346.58L259.832 352.19C260.332 352.11 260.832 352.06 261.332 352.04C261.852 352 262.372 351.98 262.892 351.98H269.282V356H254.462V353.54C254.462 353.18 254.512 352.85 254.612 352.55C254.712 352.23 254.872 351.94 255.092 351.68L260.252 346.16C261.472 344.9 262.402 343.78 263.042 342.8C263.702 341.82 264.022 340.97 264.002 340.25C263.982 339.81 263.862 339.49 263.642 339.29C263.442 339.09 263.132 338.96 262.712 338.9C262.292 338.84 261.772 338.81 261.152 338.81C260.452 338.81 259.792 338.82 259.172 338.84C258.572 338.84 257.922 338.86 257.222 338.9C256.542 338.94 255.742 339 254.822 339.08L254.642 335.66C255.622 335.44 256.502 335.28 257.282 335.18C258.082 335.08 258.832 335.02 259.532 335C260.252 334.96 260.962 334.94 261.662 334.94Z" fill="white"/>
<path d="M36.012 380.346C36.912 380.346 37.674 380.454 38.298 380.67C38.934 380.886 39.438 381.246 39.81 381.75C40.194 382.242 40.47 382.902 40.638 383.73C40.818 384.558 40.908 385.578 40.908 386.79C40.908 388.002 40.818 389.022 40.638 389.85C40.47 390.678 40.194 391.344 39.81 391.848C39.438 392.34 38.934 392.694 38.298 392.91C37.674 393.126 36.912 393.234 36.012 393.234C35.112 393.234 34.344 393.126 33.708 392.91C33.084 392.694 32.58 392.34 32.196 391.848C31.812 391.344 31.53 390.678 31.35 389.85C31.182 389.022 31.098 388.002 31.098 386.79C31.098 385.578 31.182 384.558 31.35 383.73C31.53 382.902 31.812 382.242 32.196 381.75C32.58 381.246 33.084 380.886 33.708 380.67C34.344 380.454 35.112 380.346 36.012 380.346ZM36.012 381.768C35.196 381.768 34.548 381.924 34.068 382.236C33.6 382.548 33.264 383.07 33.06 383.802C32.868 384.522 32.772 385.518 32.772 386.79C32.772 388.05 32.868 389.046 33.06 389.778C33.264 390.51 33.6 391.032 34.068 391.344C34.548 391.656 35.196 391.812 36.012 391.812C36.828 391.812 37.47 391.656 37.938 391.344C38.418 391.032 38.754 390.51 38.946 389.778C39.15 389.046 39.252 388.05 39.252 386.79C39.252 385.518 39.15 384.522 38.946 383.802C38.754 383.07 38.418 382.548 37.938 382.236C37.47 381.924 36.828 381.768 36.012 381.768ZM45.1734 380.58V393H43.5894V380.58H45.1734ZM51.1134 380.58V381.876H45.0294V380.58H51.1134ZM52.4994 380.58V393H50.9154V380.58H52.4994ZM64.9365 380.58V393H63.4065V383.946C63.4065 383.706 63.4125 383.466 63.4245 383.226C63.4365 382.986 63.4605 382.752 63.4965 382.524H63.4065C63.3225 382.752 63.2205 382.986 63.1005 383.226C62.9805 383.454 62.8665 383.67 62.7585 383.874L57.2505 393H55.6305V380.58H57.1605V389.544C57.1605 389.796 57.1485 390.048 57.1245 390.3C57.1125 390.54 57.0945 390.78 57.0705 391.02H57.1425C57.2385 390.792 57.3465 390.564 57.4665 390.336C57.5985 390.108 57.7245 389.886 57.8445 389.67L63.2985 380.58H64.9365ZM72.4858 380.364C73.0138 380.364 73.4638 380.376 73.8358 380.4C74.2198 380.424 74.5678 380.466 74.8798 380.526C75.2038 380.574 75.5338 380.64 75.8698 380.724L75.7078 381.93C75.3478 381.894 75.0118 381.864 74.6998 381.84C74.3998 381.816 74.0758 381.798 73.7278 381.786C73.3798 381.774 72.9658 381.768 72.4858 381.768C71.6818 381.768 71.0458 381.924 70.5778 382.236C70.1098 382.548 69.7738 383.07 69.5698 383.802C69.3778 384.534 69.2818 385.53 69.2818 386.79C69.2818 388.05 69.3778 389.046 69.5698 389.778C69.7738 390.51 70.1098 391.032 70.5778 391.344C71.0458 391.656 71.6818 391.812 72.4858 391.812C73.2538 391.812 73.8958 391.8 74.4118 391.776C74.9398 391.74 75.4558 391.686 75.9598 391.614L76.1218 392.802C75.6058 392.946 75.0718 393.048 74.5198 393.108C73.9798 393.18 73.3018 393.216 72.4858 393.216C71.2978 393.216 70.3438 393.012 69.6238 392.604C68.9158 392.184 68.3998 391.506 68.0758 390.57C67.7638 389.634 67.6078 388.374 67.6078 386.79C67.6078 385.206 67.7638 383.946 68.0758 383.01C68.3998 382.074 68.9158 381.402 69.6238 380.994C70.3438 380.574 71.2978 380.364 72.4858 380.364ZM83.2014 380.58C83.3454 380.58 83.4714 380.622 83.5794 380.706C83.6874 380.778 83.7594 380.88 83.7954 381.012L87.7914 393H86.1534L82.9314 382.812C82.8834 382.644 82.8294 382.476 82.7694 382.308C82.7214 382.128 82.6734 381.96 82.6254 381.804H82.1214C82.0734 381.96 82.0254 382.128 81.9774 382.308C81.9294 382.476 81.8754 382.644 81.8154 382.812L78.5934 393H76.9554L80.9514 381.012C80.9874 380.88 81.0594 380.778 81.1674 380.706C81.2754 380.622 81.4014 380.58 81.5454 380.58H83.2014ZM85.5054 387.744V389.112H79.2054V387.744H85.5054ZM91.1227 380.58V393H89.5387V380.58H91.1227ZM97.0447 385.674V387.042H90.9787V385.674H97.0447ZM98.4307 380.58V393H96.8467V380.58H98.4307ZM110.868 380.58V393H109.338V383.946C109.338 383.706 109.344 383.466 109.356 383.226C109.368 382.986 109.392 382.752 109.428 382.524H109.338C109.254 382.752 109.152 382.986 109.032 383.226C108.912 383.454 108.798 383.67 108.69 383.874L103.182 393H101.562V380.58H103.092V389.544C103.092 389.796 103.08 390.048 103.056 390.3C103.044 390.54 103.026 390.78 103.002 391.02H103.074C103.17 390.792 103.278 390.564 103.398 390.336C103.53 390.108 103.656 389.886 103.776 389.67L109.23 380.58H110.868ZM116.293 380.562C116.881 380.562 117.475 380.562 118.075 380.562C118.687 380.562 119.287 380.574 119.875 380.598C120.475 380.61 121.051 380.634 121.603 380.67L121.531 381.912H116.545C116.173 381.912 115.903 382.008 115.735 382.2C115.567 382.38 115.483 382.68 115.483 383.1V390.48C115.483 390.9 115.567 391.206 115.735 391.398C115.903 391.59 116.173 391.686 116.545 391.686H121.531L121.603 392.91C121.051 392.946 120.475 392.97 119.875 392.982C119.287 392.994 118.687 393 118.075 393C117.475 393.012 116.881 393.018 116.293 393.018C115.561 393.018 114.979 392.826 114.547 392.442C114.115 392.046 113.899 391.518 113.899 390.858V382.722C113.899 382.05 114.115 381.522 114.547 381.138C114.979 380.754 115.561 380.562 116.293 380.562ZM114.205 385.8H120.829V387.078H114.205V385.8ZM132.533 380.58V393H130.949V380.58H132.533ZM136.547 380.58V381.984H126.953V380.58H136.547ZM140.832 380.562C141.42 380.562 142.014 380.562 142.614 380.562C143.226 380.562 143.826 380.574 144.414 380.598C145.014 380.61 145.59 380.634 146.142 380.67L146.07 381.912H141.084C140.712 381.912 140.442 382.008 140.274 382.2C140.106 382.38 140.022 382.68 140.022 383.1V390.48C140.022 390.9 140.106 391.206 140.274 391.398C140.442 391.59 140.712 391.686 141.084 391.686H146.07L146.142 392.91C145.59 392.946 145.014 392.97 144.414 392.982C143.826 392.994 143.226 393 142.614 393C142.014 393.012 141.42 393.018 140.832 393.018C140.1 393.018 139.518 392.826 139.086 392.442C138.654 392.046 138.438 391.518 138.438 390.858V382.722C138.438 382.05 138.654 381.522 139.086 381.138C139.518 380.754 140.1 380.562 140.832 380.562ZM138.744 385.8H145.368V387.078H138.744V385.8ZM156.971 380.58C156.731 381.264 156.503 381.9 156.287 382.488C156.071 383.076 155.849 383.604 155.621 384.072C155.405 384.54 155.165 384.948 154.901 385.296C154.649 385.632 154.361 385.902 154.037 386.106C153.713 386.31 153.335 386.436 152.903 386.484V386.556C153.371 386.604 153.779 386.73 154.127 386.934C154.475 387.138 154.781 387.426 155.045 387.798C155.321 388.158 155.573 388.596 155.801 389.112C156.041 389.616 156.275 390.198 156.503 390.858C156.743 391.506 157.007 392.22 157.295 393H155.621C155.285 392.064 154.985 391.236 154.721 390.516C154.457 389.796 154.175 389.19 153.875 388.698C153.587 388.194 153.251 387.816 152.867 387.564C152.483 387.3 152.003 387.168 151.427 387.168V385.89C151.967 385.89 152.423 385.758 152.795 385.494C153.179 385.218 153.515 384.84 153.803 384.36C154.091 383.88 154.355 383.322 154.595 382.686C154.835 382.038 155.087 381.336 155.351 380.58H156.971ZM150.185 380.58V384.468C150.185 384.828 150.167 385.176 150.131 385.512C150.095 385.848 150.041 386.178 149.969 386.502C150.029 386.838 150.077 387.174 150.113 387.51C150.161 387.846 150.185 388.17 150.185 388.482V393H148.619V380.58H150.185ZM152.093 385.89V387.168H149.699V385.89H152.093ZM163.664 380.364C164.192 380.364 164.642 380.376 165.014 380.4C165.398 380.424 165.746 380.466 166.058 380.526C166.382 380.574 166.712 380.64 167.048 380.724L166.886 381.93C166.526 381.894 166.19 381.864 165.878 381.84C165.578 381.816 165.254 381.798 164.906 381.786C164.558 381.774 164.144 381.768 163.664 381.768C162.86 381.768 162.224 381.924 161.756 382.236C161.288 382.548 160.952 383.07 160.748 383.802C160.556 384.534 160.46 385.53 160.46 386.79C160.46 388.05 160.556 389.046 160.748 389.778C160.952 390.51 161.288 391.032 161.756 391.344C162.224 391.656 162.86 391.812 163.664 391.812C164.432 391.812 165.074 391.8 165.59 391.776C166.118 391.74 166.634 391.686 167.138 391.614L167.3 392.802C166.784 392.946 166.25 393.048 165.698 393.108C165.158 393.18 164.48 393.216 163.664 393.216C162.476 393.216 161.522 393.012 160.802 392.604C160.094 392.184 159.578 391.506 159.254 390.57C158.942 389.634 158.786 388.374 158.786 386.79C158.786 385.206 158.942 383.946 159.254 383.01C159.578 382.074 160.094 381.402 160.802 380.994C161.522 380.574 162.476 380.364 163.664 380.364ZM173.965 380.58V393H172.381V380.58H173.965ZM177.979 380.58V381.984H168.385V380.58H177.979ZM184.838 380.58C184.982 380.58 185.108 380.622 185.216 380.706C185.324 380.778 185.396 380.88 185.432 381.012L189.428 393H187.79L184.568 382.812C184.52 382.644 184.466 382.476 184.406 382.308C184.358 382.128 184.31 381.96 184.262 381.804H183.758C183.71 381.96 183.662 382.128 183.614 382.308C183.566 382.476 183.512 382.644 183.452 382.812L180.23 393H178.592L182.588 381.012C182.624 380.88 182.696 380.778 182.804 380.706C182.912 380.622 183.038 380.58 183.182 380.58H184.838ZM187.142 387.744V389.112H180.842V387.744H187.142ZM203.601 380.364C204.129 380.364 204.579 380.376 204.951 380.4C205.335 380.424 205.683 380.466 205.995 380.526C206.319 380.574 206.649 380.64 206.985 380.724L206.823 381.93C206.463 381.894 206.127 381.864 205.815 381.84C205.515 381.816 205.191 381.798 204.843 381.786C204.495 381.774 204.081 381.768 203.601 381.768C202.797 381.768 202.161 381.924 201.693 382.236C201.225 382.548 200.889 383.07 200.685 383.802C200.493 384.534 200.397 385.53 200.397 386.79C200.397 388.05 200.493 389.046 200.685 389.778C200.889 390.51 201.225 391.032 201.693 391.344C202.161 391.656 202.797 391.812 203.601 391.812C204.369 391.812 205.011 391.8 205.527 391.776C206.055 391.74 206.571 391.686 207.075 391.614L207.237 392.802C206.721 392.946 206.187 393.048 205.635 393.108C205.095 393.18 204.417 393.216 203.601 393.216C202.413 393.216 201.459 393.012 200.739 392.604C200.031 392.184 199.515 391.506 199.191 390.57C198.879 389.634 198.723 388.374 198.723 386.79C198.723 385.206 198.879 383.946 199.191 383.01C199.515 382.074 200.031 381.402 200.739 380.994C201.459 380.574 202.413 380.364 203.601 380.364ZM214.317 380.58C214.461 380.58 214.587 380.622 214.695 380.706C214.803 380.778 214.875 380.88 214.911 381.012L218.907 393H217.269L214.047 382.812C213.999 382.644 213.945 382.476 213.885 382.308C213.837 382.128 213.789 381.96 213.741 381.804H213.237C213.189 381.96 213.141 382.128 213.093 382.308C213.045 382.476 212.991 382.644 212.931 382.812L209.709 393H208.071L212.067 381.012C212.103 380.88 212.175 380.778 212.283 380.706C212.391 380.622 212.517 380.58 212.661 380.58H214.317ZM216.621 387.744V389.112H210.321V387.744H216.621ZM232.39 380.58C232.822 380.58 233.038 380.802 233.038 381.246L233.56 393H231.976L231.526 381.894H231.148L228.376 391.056C228.28 391.416 228.052 391.596 227.692 391.596H226.27C225.898 391.596 225.658 391.416 225.55 391.056L222.778 381.894H222.418L221.986 393H220.402L220.888 381.246C220.912 380.802 221.134 380.58 221.554 380.58H223.354C223.69 380.58 223.912 380.76 224.02 381.12L226.342 388.698C226.438 388.974 226.516 389.25 226.576 389.526C226.648 389.802 226.726 390.084 226.81 390.372H227.134C227.218 390.084 227.296 389.802 227.368 389.526C227.44 389.25 227.518 388.962 227.602 388.662L229.924 381.12C230.02 380.76 230.248 380.58 230.608 380.58H232.39ZM240.885 380.346C241.785 380.346 242.547 380.454 243.171 380.67C243.807 380.886 244.311 381.246 244.683 381.75C245.067 382.242 245.343 382.902 245.511 383.73C245.691 384.558 245.781 385.578 245.781 386.79C245.781 388.002 245.691 389.022 245.511 389.85C245.343 390.678 245.067 391.344 244.683 391.848C244.311 392.34 243.807 392.694 243.171 392.91C242.547 393.126 241.785 393.234 240.885 393.234C239.985 393.234 239.217 393.126 238.581 392.91C237.957 392.694 237.453 392.34 237.069 391.848C236.685 391.344 236.403 390.678 236.223 389.85C236.055 389.022 235.971 388.002 235.971 386.79C235.971 385.578 236.055 384.558 236.223 383.73C236.403 382.902 236.685 382.242 237.069 381.75C237.453 381.246 237.957 380.886 238.581 380.67C239.217 380.454 239.985 380.346 240.885 380.346ZM240.885 381.768C240.069 381.768 239.421 381.924 238.941 382.236C238.473 382.548 238.137 383.07 237.933 383.802C237.741 384.522 237.645 385.518 237.645 386.79C237.645 388.05 237.741 389.046 237.933 389.778C238.137 390.51 238.473 391.032 238.941 391.344C239.421 391.656 240.069 391.812 240.885 391.812C241.701 391.812 242.343 391.656 242.811 391.344C243.291 391.032 243.627 390.51 243.819 389.778C244.023 389.046 244.125 388.05 244.125 386.79C244.125 385.518 244.023 384.522 243.819 383.802C243.627 383.07 243.291 382.548 242.811 382.236C242.343 381.924 241.701 381.768 240.885 381.768ZM257.768 380.58V393H256.238V383.946C256.238 383.706 256.244 383.466 256.256 383.226C256.268 382.986 256.292 382.752 256.328 382.524H256.238C256.154 382.752 256.052 382.986 255.932 383.226C255.812 383.454 255.698 383.67 255.59 383.874L250.082 393H248.462V380.58H249.992V389.544C249.992 389.796 249.98 390.048 249.956 390.3C249.944 390.54 249.926 390.78 249.902 391.02H249.974C250.07 390.792 250.178 390.564 250.298 390.336C250.43 390.108 250.556 389.886 250.676 389.67L256.13 380.58H257.768ZM254.708 377.106H255.878C255.914 377.574 255.824 377.994 255.608 378.366C255.404 378.738 255.092 379.038 254.672 379.266C254.264 379.482 253.772 379.59 253.196 379.59C252.62 379.59 252.122 379.482 251.702 379.266C251.282 379.038 250.964 378.738 250.748 378.366C250.544 377.994 250.454 377.574 250.478 377.106H251.648C251.648 377.622 251.78 378.024 252.044 378.312C252.32 378.588 252.704 378.726 253.196 378.726C253.676 378.726 254.048 378.588 254.312 378.312C254.576 378.024 254.708 377.622 254.708 377.106ZM273.268 380.58C273.028 381.264 272.8 381.9 272.584 382.488C272.368 383.076 272.146 383.604 271.918 384.072C271.702 384.54 271.462 384.948 271.198 385.296C270.946 385.632 270.658 385.902 270.334 386.106C270.01 386.31 269.632 386.436 269.2 386.484V386.556C269.668 386.604 270.076 386.73 270.424 386.934C270.772 387.138 271.078 387.426 271.342 387.798C271.618 388.158 271.87 388.596 272.098 389.112C272.338 389.616 272.572 390.198 272.8 390.858C273.04 391.506 273.304 392.22 273.592 393H271.918C271.582 392.064 271.282 391.236 271.018 390.516C270.754 389.796 270.472 389.19 270.172 388.698C269.884 388.194 269.548 387.816 269.164 387.564C268.78 387.3 268.3 387.168 267.724 387.168V385.89C268.264 385.89 268.72 385.758 269.092 385.494C269.476 385.218 269.812 384.84 270.1 384.36C270.388 383.88 270.652 383.322 270.892 382.686C271.132 382.038 271.384 381.336 271.648 380.58H273.268ZM266.482 380.58V384.468C266.482 384.828 266.464 385.176 266.428 385.512C266.392 385.848 266.338 386.178 266.266 386.502C266.326 386.838 266.374 387.174 266.41 387.51C266.458 387.846 266.482 388.17 266.482 388.482V393H264.916V380.58H266.482ZM268.39 385.89V387.168H265.996V385.89H268.39ZM280.569 380.58C280.713 380.58 280.839 380.622 280.947 380.706C281.055 380.778 281.127 380.88 281.163 381.012L285.159 393H283.521L280.299 382.812C280.251 382.644 280.197 382.476 280.137 382.308C280.089 382.128 280.041 381.96 279.993 381.804H279.489C279.441 381.96 279.393 382.128 279.345 382.308C279.297 382.476 279.243 382.644 279.183 382.812L275.961 393H274.323L278.319 381.012C278.355 380.88 278.427 380.778 278.535 380.706C278.643 380.622 278.769 380.58 278.913 380.58H280.569ZM282.873 387.744V389.112H276.573V387.744H282.873ZM291.19 380.418C292.186 380.418 292.972 380.532 293.548 380.76C294.124 380.988 294.538 381.384 294.79 381.948C295.042 382.5 295.168 383.286 295.168 384.306C295.168 385.326 295.042 386.118 294.79 386.682C294.55 387.246 294.148 387.642 293.584 387.87C293.032 388.086 292.288 388.194 291.352 388.194C290.848 388.194 290.362 388.182 289.894 388.158C289.438 388.134 289.018 388.104 288.634 388.068C288.25 388.02 287.92 387.972 287.644 387.924C287.38 387.876 287.194 387.834 287.086 387.798L287.14 386.826C287.776 386.826 288.436 386.826 289.12 386.826C289.804 386.826 290.482 386.826 291.154 386.826C291.754 386.814 292.228 386.742 292.576 386.61C292.936 386.466 293.188 386.214 293.332 385.854C293.488 385.482 293.566 384.966 293.566 384.306C293.566 383.634 293.488 383.118 293.332 382.758C293.188 382.398 292.936 382.146 292.576 382.002C292.228 381.858 291.754 381.786 291.154 381.786C290.17 381.786 289.318 381.792 288.598 381.804C287.89 381.816 287.41 381.834 287.158 381.858L286.906 380.58C287.362 380.532 287.788 380.496 288.184 380.472C288.58 380.448 289.012 380.436 289.48 380.436C289.948 380.424 290.518 380.418 291.19 380.418ZM288.49 380.58V393H286.906V380.58H288.49ZM301.969 380.58V393H300.385V380.58H301.969ZM305.983 380.58V381.984H296.389V380.58H305.983ZM312.182 380.346C313.082 380.346 313.844 380.454 314.468 380.67C315.104 380.886 315.608 381.246 315.98 381.75C316.364 382.242 316.64 382.902 316.808 383.73C316.988 384.558 317.078 385.578 317.078 386.79C317.078 388.002 316.988 389.022 316.808 389.85C316.64 390.678 316.364 391.344 315.98 391.848C315.608 392.34 315.104 392.694 314.468 392.91C313.844 393.126 313.082 393.234 312.182 393.234C311.282 393.234 310.514 393.126 309.878 392.91C309.254 392.694 308.75 392.34 308.366 391.848C307.982 391.344 307.7 390.678 307.52 389.85C307.352 389.022 307.268 388.002 307.268 386.79C307.268 385.578 307.352 384.558 307.52 383.73C307.7 382.902 307.982 382.242 308.366 381.75C308.75 381.246 309.254 380.886 309.878 380.67C310.514 380.454 311.282 380.346 312.182 380.346ZM312.182 381.768C311.366 381.768 310.718 381.924 310.238 382.236C309.77 382.548 309.434 383.07 309.23 383.802C309.038 384.522 308.942 385.518 308.942 386.79C308.942 388.05 309.038 389.046 309.23 389.778C309.434 390.51 309.77 391.032 310.238 391.344C310.718 391.656 311.366 391.812 312.182 391.812C312.998 391.812 313.64 391.656 314.108 391.344C314.588 391.032 314.924 390.51 315.116 389.778C315.32 389.046 315.422 388.05 315.422 386.79C315.422 385.518 315.32 384.522 315.116 383.802C314.924 383.07 314.588 382.548 314.108 382.236C313.64 381.924 312.998 381.768 312.182 381.768ZM320.857 380.58V385.35C320.845 385.95 320.977 386.388 321.253 386.664C321.529 386.928 321.979 387.06 322.603 387.06C323.059 387.06 323.485 387.03 323.881 386.97C324.277 386.898 324.685 386.784 325.105 386.628C325.537 386.46 326.017 386.244 326.545 385.98L326.653 387.114C326.125 387.438 325.585 387.702 325.033 387.906C324.493 388.11 323.965 388.26 323.449 388.356C322.945 388.44 322.477 388.482 322.045 388.482C321.097 388.482 320.395 388.254 319.939 387.798C319.495 387.33 319.273 386.622 319.273 385.674V380.58H320.857ZM327.877 380.58V393H326.311V380.58H327.877ZM339.361 380.58C339.121 381.264 338.893 381.9 338.677 382.488C338.461 383.076 338.239 383.604 338.011 384.072C337.795 384.54 337.555 384.948 337.291 385.296C337.039 385.632 336.751 385.902 336.427 386.106C336.103 386.31 335.725 386.436 335.293 386.484V386.556C335.761 386.604 336.169 386.73 336.517 386.934C336.865 387.138 337.171 387.426 337.435 387.798C337.711 388.158 337.963 388.596 338.191 389.112C338.431 389.616 338.665 390.198 338.893 390.858C339.133 391.506 339.397 392.22 339.685 393H338.011C337.675 392.064 337.375 391.236 337.111 390.516C336.847 389.796 336.565 389.19 336.265 388.698C335.977 388.194 335.641 387.816 335.257 387.564C334.873 387.3 334.393 387.168 333.817 387.168V385.89C334.357 385.89 334.813 385.758 335.185 385.494C335.569 385.218 335.905 384.84 336.193 384.36C336.481 383.88 336.745 383.322 336.985 382.686C337.225 382.038 337.477 381.336 337.741 380.58H339.361ZM332.575 380.58V384.468C332.575 384.828 332.557 385.176 332.521 385.512C332.485 385.848 332.431 386.178 332.359 386.502C332.419 386.838 332.467 387.174 332.503 387.51C332.551 387.846 332.575 388.17 332.575 388.482V393H331.009V380.58H332.575ZM334.483 385.89V387.168H332.089V385.89H334.483ZM351.108 380.58V393H349.578V383.946C349.578 383.706 349.584 383.466 349.596 383.226C349.608 382.986 349.632 382.752 349.668 382.524H349.578C349.494 382.752 349.392 382.986 349.272 383.226C349.152 383.454 349.038 383.67 348.93 383.874L343.422 393H341.802V380.58H343.332V389.544C343.332 389.796 343.32 390.048 343.296 390.3C343.284 390.54 343.266 390.78 343.242 391.02H343.314C343.41 390.792 343.518 390.564 343.638 390.336C343.77 390.108 343.896 389.886 344.016 389.67L349.47 380.58H351.108ZM354.986 390.876C355.202 390.876 355.352 390.918 355.436 391.002C355.52 391.086 355.562 391.236 355.562 391.452V392.424C355.562 392.64 355.52 392.79 355.436 392.874C355.352 392.958 355.202 393 354.986 393H354.482C354.278 393 354.128 392.958 354.032 392.874C353.948 392.79 353.906 392.64 353.906 392.424V391.452C353.906 391.236 353.948 391.086 354.032 391.002C354.128 390.918 354.278 390.876 354.482 390.876H354.986ZM34.284 403.364C35.52 403.364 36.498 403.574 37.218 403.994C37.95 404.402 38.472 405.074 38.784 406.01C39.108 406.946 39.27 408.206 39.27 409.79C39.27 411.374 39.108 412.634 38.784 413.57C38.472 414.506 37.95 415.184 37.218 415.604C36.498 416.012 35.52 416.216 34.284 416.216C33.48 416.216 32.814 416.18 32.286 416.108C31.758 416.048 31.242 415.946 30.738 415.802L30.9 414.596C31.392 414.668 31.89 414.722 32.394 414.758C32.898 414.782 33.528 414.794 34.284 414.794C35.124 414.794 35.79 414.638 36.282 414.326C36.774 414.014 37.122 413.498 37.326 412.778C37.542 412.046 37.644 411.05 37.632 409.79C37.644 408.53 37.542 407.54 37.326 406.82C37.122 406.088 36.774 405.566 36.282 405.254C35.79 404.942 35.124 404.786 34.284 404.786C33.804 404.786 33.384 404.792 33.024 404.804C32.676 404.816 32.346 404.834 32.034 404.858C31.722 404.87 31.386 404.9 31.026 404.948L30.846 403.724C31.194 403.64 31.53 403.574 31.854 403.526C32.178 403.466 32.532 403.424 32.916 403.4C33.312 403.376 33.768 403.364 34.284 403.364ZM38.766 408.782V410.042L32.304 410.024V408.8L38.766 408.782ZM46.1546 403.58V416H44.5706V403.58H46.1546ZM50.1686 403.58V404.984H40.5746V403.58H50.1686ZM56.3675 403.346C57.2675 403.346 58.0295 403.454 58.6535 403.67C59.2895 403.886 59.7935 404.246 60.1655 404.75C60.5495 405.242 60.8255 405.902 60.9935 406.73C61.1735 407.558 61.2635 408.578 61.2635 409.79C61.2635 411.002 61.1735 412.022 60.9935 412.85C60.8255 413.678 60.5495 414.344 60.1655 414.848C59.7935 415.34 59.2895 415.694 58.6535 415.91C58.0295 416.126 57.2675 416.234 56.3675 416.234C55.4675 416.234 54.6995 416.126 54.0635 415.91C53.4395 415.694 52.9355 415.34 52.5515 414.848C52.1675 414.344 51.8855 413.678 51.7055 412.85C51.5375 412.022 51.4535 411.002 51.4535 409.79C51.4535 408.578 51.5375 407.558 51.7055 406.73C51.8855 405.902 52.1675 405.242 52.5515 404.75C52.9355 404.246 53.4395 403.886 54.0635 403.67C54.6995 403.454 55.4675 403.346 56.3675 403.346ZM56.3675 404.768C55.5515 404.768 54.9035 404.924 54.4235 405.236C53.9555 405.548 53.6195 406.07 53.4155 406.802C53.2235 407.522 53.1275 408.518 53.1275 409.79C53.1275 411.05 53.2235 412.046 53.4155 412.778C53.6195 413.51 53.9555 414.032 54.4235 414.344C54.9035 414.656 55.5515 414.812 56.3675 414.812C57.1835 414.812 57.8255 414.656 58.2935 414.344C58.7735 414.032 59.1095 413.51 59.3015 412.778C59.5055 412.046 59.6075 411.05 59.6075 409.79C59.6075 408.518 59.5055 407.522 59.3015 406.802C59.1095 406.07 58.7735 405.548 58.2935 405.236C57.8255 404.924 57.1835 404.768 56.3675 404.768ZM68.1448 403.58V416H66.5608V403.58H68.1448ZM72.1588 403.58V404.984H62.5648V403.58H72.1588ZM82.6116 403.58V416H81.0276V403.58H82.6116ZM86.6256 403.58V404.984H77.0316V403.58H86.6256ZM90.9106 403.562C91.4986 403.562 92.0926 403.562 92.6926 403.562C93.3046 403.562 93.9046 403.574 94.4926 403.598C95.0926 403.61 95.6686 403.634 96.2206 403.67L96.1486 404.912H91.1626C90.7906 404.912 90.5206 405.008 90.3526 405.2C90.1846 405.38 90.1006 405.68 90.1006 406.1V413.48C90.1006 413.9 90.1846 414.206 90.3526 414.398C90.5206 414.59 90.7906 414.686 91.1626 414.686H96.1486L96.2206 415.91C95.6686 415.946 95.0926 415.97 94.4926 415.982C93.9046 415.994 93.3046 416 92.6926 416C92.0926 416.012 91.4986 416.018 90.9106 416.018C90.1786 416.018 89.5966 415.826 89.1646 415.442C88.7326 415.046 88.5166 414.518 88.5166 413.858V405.722C88.5166 405.05 88.7326 404.522 89.1646 404.138C89.5966 403.754 90.1786 403.562 90.9106 403.562ZM88.8226 408.8H95.4466V410.078H88.8226V408.8ZM107.049 403.58C106.809 404.264 106.581 404.9 106.365 405.488C106.149 406.076 105.927 406.604 105.699 407.072C105.483 407.54 105.243 407.948 104.979 408.296C104.727 408.632 104.439 408.902 104.115 409.106C103.791 409.31 103.413 409.436 102.981 409.484V409.556C103.449 409.604 103.857 409.73 104.205 409.934C104.553 410.138 104.859 410.426 105.123 410.798C105.399 411.158 105.651 411.596 105.879 412.112C106.119 412.616 106.353 413.198 106.581 413.858C106.821 414.506 107.085 415.22 107.373 416H105.699C105.363 415.064 105.063 414.236 104.799 413.516C104.535 412.796 104.253 412.19 103.953 411.698C103.665 411.194 103.329 410.816 102.945 410.564C102.561 410.3 102.081 410.168 101.505 410.168V408.89C102.045 408.89 102.501 408.758 102.873 408.494C103.257 408.218 103.593 407.84 103.881 407.36C104.169 406.88 104.433 406.322 104.673 405.686C104.913 405.038 105.165 404.336 105.429 403.58H107.049ZM100.263 403.58V407.468C100.263 407.828 100.245 408.176 100.209 408.512C100.173 408.848 100.119 409.178 100.047 409.502C100.107 409.838 100.155 410.174 100.191 410.51C100.239 410.846 100.263 411.17 100.263 411.482V416H98.6969V403.58H100.263ZM102.171 408.89V410.168H99.7769V408.89H102.171ZM113.742 403.364C114.27 403.364 114.72 403.376 115.092 403.4C115.476 403.424 115.824 403.466 116.136 403.526C116.46 403.574 116.79 403.64 117.126 403.724L116.964 404.93C116.604 404.894 116.268 404.864 115.956 404.84C115.656 404.816 115.332 404.798 114.984 404.786C114.636 404.774 114.222 404.768 113.742 404.768C112.938 404.768 112.302 404.924 111.834 405.236C111.366 405.548 111.03 406.07 110.826 406.802C110.634 407.534 110.538 408.53 110.538 409.79C110.538 411.05 110.634 412.046 110.826 412.778C111.03 413.51 111.366 414.032 111.834 414.344C112.302 414.656 112.938 414.812 113.742 414.812C114.51 414.812 115.152 414.8 115.668 414.776C116.196 414.74 116.712 414.686 117.216 414.614L117.378 415.802C116.862 415.946 116.328 416.048 115.776 416.108C115.236 416.18 114.558 416.216 113.742 416.216C112.554 416.216 111.6 416.012 110.88 415.604C110.172 415.184 109.656 414.506 109.332 413.57C109.02 412.634 108.864 411.374 108.864 409.79C108.864 408.206 109.02 406.946 109.332 406.01C109.656 405.074 110.172 404.402 110.88 403.994C111.6 403.574 112.554 403.364 113.742 403.364ZM124.043 403.58V416H122.459V403.58H124.043ZM128.057 403.58V404.984H118.463V403.58H128.057ZM135.648 403.58V416H134.064V403.58H135.648ZM141.57 408.674V410.042H135.504V408.674H141.57ZM142.956 403.58V416H141.372V403.58H142.956ZM150.947 403.58C151.091 403.58 151.217 403.622 151.325 403.706C151.433 403.778 151.505 403.88 151.541 404.012L155.537 416H153.899L150.677 405.812C150.629 405.644 150.575 405.476 150.515 405.308C150.467 405.128 150.419 404.96 150.371 404.804H149.867C149.819 404.96 149.771 405.128 149.723 405.308C149.675 405.476 149.621 405.644 149.561 405.812L146.339 416H144.701L148.697 404.012C148.733 403.88 148.805 403.778 148.913 403.706C149.021 403.622 149.147 403.58 149.291 403.58H150.947ZM153.251 410.744V412.112H146.951V410.744H153.251ZM158.869 403.58V416H157.285V403.58H158.869ZM164.809 403.58V404.876H158.725V403.58H164.809ZM166.195 403.58V416H164.611V403.58H166.195ZM178.632 403.58V416H177.102V406.946C177.102 406.706 177.108 406.466 177.12 406.226C177.132 405.986 177.156 405.752 177.192 405.524H177.102C177.018 405.752 176.916 405.986 176.796 406.226C176.676 406.454 176.562 406.67 176.454 406.874L170.946 416H169.326V403.58H170.856V412.544C170.856 412.796 170.844 413.048 170.82 413.3C170.808 413.54 170.79 413.78 170.766 414.02H170.838C170.934 413.792 171.042 413.564 171.162 413.336C171.294 413.108 171.42 412.886 171.54 412.67L176.994 403.58H178.632ZM186.181 403.364C186.709 403.364 187.159 403.376 187.531 403.4C187.915 403.424 188.263 403.466 188.575 403.526C188.899 403.574 189.229 403.64 189.565 403.724L189.403 404.93C189.043 404.894 188.707 404.864 188.395 404.84C188.095 404.816 187.771 404.798 187.423 404.786C187.075 404.774 186.661 404.768 186.181 404.768C185.377 404.768 184.741 404.924 184.273 405.236C183.805 405.548 183.469 406.07 183.265 406.802C183.073 407.534 182.977 408.53 182.977 409.79C182.977 411.05 183.073 412.046 183.265 412.778C183.469 413.51 183.805 414.032 184.273 414.344C184.741 414.656 185.377 414.812 186.181 414.812C186.949 414.812 187.591 414.8 188.107 414.776C188.635 414.74 189.151 414.686 189.655 414.614L189.817 415.802C189.301 415.946 188.767 416.048 188.215 416.108C187.675 416.18 186.997 416.216 186.181 416.216C184.993 416.216 184.039 416.012 183.319 415.604C182.611 415.184 182.095 414.506 181.771 413.57C181.459 412.634 181.303 411.374 181.303 409.79C181.303 408.206 181.459 406.946 181.771 406.01C182.095 405.074 182.611 404.402 183.319 403.994C184.039 403.574 184.993 403.364 186.181 403.364ZM196.897 403.58C197.041 403.58 197.167 403.622 197.275 403.706C197.383 403.778 197.455 403.88 197.491 404.012L201.487 416H199.849L196.627 405.812C196.579 405.644 196.525 405.476 196.465 405.308C196.417 405.128 196.369 404.96 196.321 404.804H195.817C195.769 404.96 195.721 405.128 195.673 405.308C195.625 405.476 195.571 405.644 195.511 405.812L192.289 416H190.651L194.647 404.012C194.683 403.88 194.755 403.778 194.863 403.706C194.971 403.622 195.097 403.58 195.241 403.58H196.897ZM199.201 410.744V412.112H192.901V410.744H199.201ZM204.818 403.58V416H203.234V403.58H204.818ZM210.74 408.674V410.042H204.674V408.674H210.74ZM212.126 403.58V416H210.542V403.58H212.126ZM228.067 403.58V416H226.483V404.876H223.927C223.483 404.876 223.159 404.972 222.955 405.164C222.763 405.356 222.655 405.68 222.631 406.136C222.583 406.952 222.517 407.732 222.433 408.476C222.361 409.208 222.265 409.91 222.145 410.582C222.025 411.242 221.869 411.884 221.677 412.508C221.497 413.12 221.275 413.714 221.011 414.29C220.759 414.866 220.453 415.436 220.093 416H218.617C219.229 415.004 219.703 413.954 220.039 412.85C220.375 411.734 220.621 410.594 220.777 409.43C220.945 408.254 221.059 407.078 221.119 405.902C221.143 405.17 221.377 404.6 221.821 404.192C222.265 403.784 222.871 403.58 223.639 403.58H228.067ZM219.355 415.874L219.193 418.718H218.095V415.874H219.355ZM229.597 414.704V416H218.095V414.704H229.597ZM229.597 415.874V418.718H228.499L228.355 415.874H229.597ZM240.08 403.58V404.876H236.264C235.448 404.876 235.004 405.296 234.932 406.136C234.836 407.192 234.752 408.104 234.68 408.872C234.608 409.64 234.524 410.312 234.428 410.888C234.344 411.452 234.242 411.956 234.122 412.4C234.002 412.832 233.84 413.252 233.636 413.66C233.408 414.152 233.144 414.578 232.844 414.938C232.544 415.286 232.196 415.556 231.8 415.748C231.416 415.928 230.984 416.018 230.504 416.018L230.36 414.794C230.744 414.674 231.08 414.5 231.368 414.272C231.668 414.044 231.926 413.696 232.142 413.228C232.286 412.916 232.406 412.604 232.502 412.292C232.61 411.98 232.7 411.638 232.772 411.266C232.856 410.882 232.928 410.444 232.988 409.952C233.06 409.448 233.126 408.866 233.186 408.206C233.246 407.534 233.312 406.748 233.384 405.848C233.528 404.336 234.35 403.58 235.85 403.58H240.08ZM240.332 403.58V416H238.748V403.58H240.332ZM247.142 403.418C247.802 403.418 248.366 403.424 248.834 403.436C249.302 403.436 249.728 403.448 250.112 403.472C250.508 403.496 250.928 403.532 251.372 403.58L251.12 404.858C250.868 404.834 250.394 404.816 249.698 404.804C249.002 404.792 248.156 404.786 247.16 404.786C246.584 404.786 246.122 404.858 245.774 405.002C245.438 405.134 245.192 405.374 245.036 405.722C244.88 406.058 244.796 406.532 244.784 407.144C244.784 407.672 244.856 408.122 245 408.494C245.144 408.854 245.384 409.13 245.72 409.322C246.056 409.502 246.512 409.592 247.088 409.592H251.138L251.192 410.906C251.036 410.906 250.838 410.912 250.598 410.924C250.358 410.924 250.07 410.93 249.734 410.942C249.398 410.942 249.008 410.948 248.564 410.96C248.132 410.96 247.64 410.96 247.088 410.96C246.68 410.96 246.338 411.062 246.062 411.266C245.798 411.458 245.594 411.794 245.45 412.274L244.37 416H242.678L243.83 412.202C243.938 411.842 244.082 411.542 244.262 411.302C244.442 411.062 244.64 410.876 244.856 410.744C245.084 410.6 245.306 410.504 245.522 410.456L245.504 410.366C244.952 410.282 244.502 410.102 244.154 409.826C243.818 409.538 243.572 409.16 243.416 408.692C243.272 408.224 243.2 407.678 243.2 407.054C243.2 406.166 243.332 405.458 243.596 404.93C243.872 404.402 244.298 404.018 244.874 403.778C245.462 403.538 246.218 403.418 247.142 403.418ZM251.372 403.58V416H249.788V403.58H251.372ZM262.549 403.436C263.569 403.436 264.379 403.532 264.979 403.724C265.579 403.904 266.011 404.228 266.275 404.696C266.551 405.164 266.689 405.824 266.689 406.676C266.689 407.564 266.521 408.242 266.185 408.71C265.861 409.178 265.327 409.448 264.583 409.52V409.592C265.507 409.676 266.149 410 266.509 410.564C266.881 411.128 267.067 411.908 267.067 412.904C267.067 413.756 266.935 414.416 266.671 414.884C266.407 415.352 265.981 415.682 265.393 415.874C264.817 416.054 264.055 416.144 263.107 416.144C262.399 416.144 261.787 416.138 261.271 416.126C260.767 416.126 260.299 416.114 259.867 416.09C259.435 416.066 258.985 416.036 258.517 416L258.769 414.74C259.033 414.752 259.531 414.764 260.263 414.776C261.007 414.788 261.871 414.794 262.855 414.794C263.515 414.794 264.031 414.74 264.403 414.632C264.787 414.512 265.057 414.296 265.213 413.984C265.381 413.672 265.465 413.222 265.465 412.634C265.465 411.986 265.381 411.488 265.213 411.14C265.045 410.792 264.763 410.546 264.367 410.402C263.971 410.258 263.431 410.18 262.747 410.168H258.751V408.962H262.729C263.329 408.95 263.803 408.89 264.151 408.782C264.511 408.662 264.769 408.452 264.925 408.152C265.081 407.84 265.159 407.408 265.159 406.856C265.159 406.292 265.075 405.86 264.907 405.56C264.739 405.26 264.457 405.056 264.061 404.948C263.677 404.84 263.149 404.786 262.477 404.786C261.889 404.786 261.361 404.786 260.893 404.786C260.425 404.786 260.011 404.792 259.651 404.804C259.303 404.804 259.009 404.816 258.769 404.84L258.517 403.58C258.937 403.532 259.333 403.502 259.705 403.49C260.089 403.466 260.503 403.454 260.947 403.454C261.403 403.442 261.937 403.436 262.549 403.436ZM260.065 403.58V416H258.517V403.58H260.065ZM278.985 403.58V416H277.455V406.946C277.455 406.706 277.461 406.466 277.473 406.226C277.485 405.986 277.509 405.752 277.545 405.524H277.455C277.371 405.752 277.269 405.986 277.149 406.226C277.029 406.454 276.915 406.67 276.807 406.874L271.299 416H269.679V403.58H271.209V412.544C271.209 412.796 271.197 413.048 271.173 413.3C271.161 413.54 271.143 413.78 271.119 414.02H271.191C271.287 413.792 271.395 413.564 271.515 413.336C271.647 413.108 271.773 412.886 271.893 412.67L277.347 403.58H278.985ZM284.933 403.436C285.941 403.436 286.739 403.532 287.327 403.724C287.927 403.904 288.359 404.228 288.623 404.696C288.887 405.164 289.019 405.824 289.019 406.676C289.019 407.564 288.857 408.242 288.533 408.71C288.209 409.178 287.675 409.448 286.931 409.52V409.592C287.855 409.676 288.491 410 288.839 410.564C289.199 411.128 289.379 411.908 289.379 412.904C289.379 413.756 289.247 414.416 288.983 414.884C288.719 415.352 288.299 415.682 287.723 415.874C287.159 416.054 286.409 416.144 285.473 416.144C284.909 416.144 284.381 416.132 283.889 416.108C283.397 416.084 282.929 416.042 282.485 415.982C282.053 415.922 281.633 415.844 281.225 415.748L281.351 414.596C281.819 414.644 282.383 414.698 283.043 414.758C283.715 414.806 284.441 414.83 285.221 414.83C285.857 414.83 286.355 414.776 286.715 414.668C287.087 414.548 287.351 414.332 287.507 414.02C287.675 413.696 287.759 413.234 287.759 412.634C287.759 411.998 287.675 411.506 287.507 411.158C287.339 410.798 287.057 410.546 286.661 410.402C286.277 410.258 285.755 410.186 285.095 410.186H283.007V408.944H285.095C285.683 408.944 286.145 408.884 286.481 408.764C286.817 408.644 287.057 408.434 287.201 408.134C287.357 407.834 287.435 407.408 287.435 406.856C287.435 406.28 287.351 405.842 287.183 405.542C287.027 405.23 286.757 405.02 286.373 404.912C286.001 404.792 285.491 404.732 284.843 404.732C284.159 404.732 283.547 404.756 283.007 404.804C282.479 404.852 282.023 404.894 281.639 404.93L281.513 403.724C282.065 403.628 282.605 403.556 283.133 403.508C283.661 403.46 284.261 403.436 284.933 403.436ZM300.373 403.58L297.025 412.94C296.821 413.492 296.599 414.002 296.359 414.47C296.119 414.938 295.831 415.322 295.495 415.622C295.159 415.922 294.739 416.09 294.235 416.126C294.031 416.138 293.791 416.132 293.515 416.108C293.251 416.096 292.981 416.066 292.705 416.018C292.441 415.97 292.207 415.922 292.003 415.874L292.183 414.704C292.783 414.752 293.251 414.776 293.587 414.776C293.935 414.776 294.205 414.722 294.397 414.614C294.601 414.494 294.775 414.302 294.919 414.038C295.063 413.774 295.231 413.408 295.423 412.94L295.837 411.878L296.017 411.32L298.753 403.58H300.373ZM292.471 403.58L294.973 410.762C295.045 410.954 295.183 411.05 295.387 411.05H296.269L296.503 412.382H294.955C294.619 412.382 294.349 412.316 294.145 412.184C293.953 412.04 293.809 411.824 293.713 411.536L290.833 403.58H292.471ZM306.303 403.58C306.447 403.58 306.573 403.622 306.681 403.706C306.789 403.778 306.861 403.88 306.897 404.012L310.893 416H309.255L306.033 405.812C305.985 405.644 305.931 405.476 305.871 405.308C305.823 405.128 305.775 404.96 305.727 404.804H305.223C305.175 404.96 305.127 405.128 305.079 405.308C305.031 405.476 304.977 405.644 304.917 405.812L301.695 416H300.057L304.053 404.012C304.089 403.88 304.161 403.778 304.269 403.706C304.377 403.622 304.503 403.58 304.647 403.58H306.303ZM308.607 410.744V412.112H302.307V410.744H308.607ZM320.974 403.58V404.876H317.158C316.342 404.876 315.898 405.296 315.826 406.136C315.73 407.192 315.646 408.104 315.574 408.872C315.502 409.64 315.418 410.312 315.322 410.888C315.238 411.452 315.136 411.956 315.016 412.4C314.896 412.832 314.734 413.252 314.53 413.66C314.302 414.152 314.038 414.578 313.738 414.938C313.438 415.286 313.09 415.556 312.694 415.748C312.31 415.928 311.878 416.018 311.398 416.018L311.254 414.794C311.638 414.674 311.974 414.5 312.262 414.272C312.562 414.044 312.82 413.696 313.036 413.228C313.18 412.916 313.3 412.604 313.396 412.292C313.504 411.98 313.594 411.638 313.666 411.266C313.75 410.882 313.822 410.444 313.882 409.952C313.954 409.448 314.02 408.866 314.08 408.206C314.14 407.534 314.206 406.748 314.278 405.848C314.422 404.336 315.244 403.58 316.744 403.58H320.974ZM321.226 403.58V416H319.642V403.58H321.226ZM328.577 408.584C329.597 408.584 330.401 408.71 330.989 408.962C331.589 409.202 332.015 409.598 332.267 410.15C332.519 410.702 332.645 411.452 332.645 412.4C332.645 413.384 332.513 414.146 332.249 414.686C331.997 415.226 331.589 415.604 331.025 415.82C330.473 416.036 329.735 416.144 328.811 416.144C328.127 416.144 327.539 416.138 327.047 416.126C326.555 416.126 326.105 416.114 325.697 416.09C325.289 416.066 324.857 416.036 324.401 416L324.635 414.704C324.911 414.716 325.391 414.728 326.075 414.74C326.771 414.752 327.605 414.758 328.577 414.758C329.237 414.758 329.741 414.698 330.089 414.578C330.449 414.446 330.701 414.206 330.845 413.858C330.989 413.51 331.061 413.018 331.061 412.382C331.061 411.782 330.995 411.302 330.863 410.942C330.731 410.582 330.485 410.324 330.125 410.168C329.777 410 329.261 409.916 328.577 409.916H324.617V408.584H328.577ZM325.949 403.58V416H324.365V403.58H325.949ZM336.636 403.58V416H335.052V403.58H336.636ZM342.558 408.674V410.042H336.492V408.674H342.558ZM343.944 403.58V416H342.36V403.58H343.944ZM351.522 403.346C352.422 403.346 353.184 403.454 353.808 403.67C354.444 403.886 354.948 404.246 355.32 404.75C355.704 405.242 355.98 405.902 356.148 406.73C356.328 407.558 356.418 408.578 356.418 409.79C356.418 411.002 356.328 412.022 356.148 412.85C355.98 413.678 355.704 414.344 355.32 414.848C354.948 415.34 354.444 415.694 353.808 415.91C353.184 416.126 352.422 416.234 351.522 416.234C350.622 416.234 349.854 416.126 349.218 415.91C348.594 415.694 348.09 415.34 347.706 414.848C347.322 414.344 347.04 413.678 346.86 412.85C346.692 412.022 346.608 411.002 346.608 409.79C346.608 408.578 346.692 407.558 346.86 406.73C347.04 405.902 347.322 405.242 347.706 404.75C348.09 404.246 348.594 403.886 349.218 403.67C349.854 403.454 350.622 403.346 351.522 403.346ZM351.522 404.768C350.706 404.768 350.058 404.924 349.578 405.236C349.11 405.548 348.774 406.07 348.57 406.802C348.378 407.522 348.282 408.518 348.282 409.79C348.282 411.05 348.378 412.046 348.57 412.778C348.774 413.51 349.11 414.032 349.578 414.344C350.058 414.656 350.706 414.812 351.522 414.812C352.338 414.812 352.98 414.656 353.448 414.344C353.928 414.032 354.264 413.51 354.456 412.778C354.66 412.046 354.762 411.05 354.762 409.79C354.762 408.518 354.66 407.522 354.456 406.802C354.264 406.07 353.928 405.548 353.448 405.236C352.98 404.924 352.338 404.768 351.522 404.768ZM361.331 403.562C362.195 403.562 363.065 403.568 363.941 403.58C364.829 403.592 365.675 403.628 366.479 403.688L366.407 404.912H361.853C361.433 404.912 361.121 405.014 360.917 405.218C360.725 405.41 360.629 405.734 360.629 406.19V416H359.063V405.902C359.063 405.206 359.273 404.642 359.693 404.21C360.125 403.778 360.671 403.562 361.331 403.562ZM372.598 403.346C373.498 403.346 374.26 403.454 374.884 403.67C375.52 403.886 376.024 404.246 376.396 404.75C376.78 405.242 377.056 405.902 377.224 406.73C377.404 407.558 377.494 408.578 377.494 409.79C377.494 411.002 377.404 412.022 377.224 412.85C377.056 413.678 376.78 414.344 376.396 414.848C376.024 415.34 375.52 415.694 374.884 415.91C374.26 416.126 373.498 416.234 372.598 416.234C371.698 416.234 370.93 416.126 370.294 415.91C369.67 415.694 369.166 415.34 368.782 414.848C368.398 414.344 368.116 413.678 367.936 412.85C367.768 412.022 367.684 411.002 367.684 409.79C367.684 408.578 367.768 407.558 367.936 406.73C368.116 405.902 368.398 405.242 368.782 404.75C369.166 404.246 369.67 403.886 370.294 403.67C370.93 403.454 371.698 403.346 372.598 403.346ZM372.598 404.768C371.782 404.768 371.134 404.924 370.654 405.236C370.186 405.548 369.85 406.07 369.646 406.802C369.454 407.522 369.358 408.518 369.358 409.79C369.358 411.05 369.454 412.046 369.646 412.778C369.85 413.51 370.186 414.032 370.654 414.344C371.134 414.656 371.782 414.812 372.598 414.812C373.414 414.812 374.056 414.656 374.524 414.344C375.004 414.032 375.34 413.51 375.532 412.778C375.736 412.046 375.838 411.05 375.838 409.79C375.838 408.518 375.736 407.522 375.532 406.802C375.34 406.07 375.004 405.548 374.524 405.236C374.056 404.924 373.414 404.768 372.598 404.768ZM388.629 403.346C389.529 403.346 390.291 403.454 390.915 403.67C391.551 403.886 392.055 404.246 392.427 404.75C392.811 405.242 393.087 405.902 393.255 406.73C393.435 407.558 393.525 408.578 393.525 409.79C393.525 411.002 393.435 412.022 393.255 412.85C393.087 413.678 392.811 414.344 392.427 414.848C392.055 415.34 391.551 415.694 390.915 415.91C390.291 416.126 389.529 416.234 388.629 416.234C387.729 416.234 386.961 416.126 386.325 415.91C385.701 415.694 385.197 415.34 384.813 414.848C384.429 414.344 384.147 413.678 383.967 412.85C383.799 412.022 383.715 411.002 383.715 409.79C383.715 408.578 383.799 407.558 383.967 406.73C384.147 405.902 384.429 405.242 384.813 404.75C385.197 404.246 385.701 403.886 386.325 403.67C386.961 403.454 387.729 403.346 388.629 403.346ZM388.629 404.768C387.813 404.768 387.165 404.924 386.685 405.236C386.217 405.548 385.881 406.07 385.677 406.802C385.485 407.522 385.389 408.518 385.389 409.79C385.389 411.05 385.485 412.046 385.677 412.778C385.881 413.51 386.217 414.032 386.685 414.344C387.165 414.656 387.813 414.812 388.629 414.812C389.445 414.812 390.087 414.656 390.555 414.344C391.035 414.032 391.371 413.51 391.563 412.778C391.767 412.046 391.869 411.05 391.869 409.79C391.869 408.518 391.767 407.522 391.563 406.802C391.371 406.07 391.035 405.548 390.555 405.236C390.087 404.924 389.445 404.768 388.629 404.768ZM400.407 403.58V416H398.823V403.58H400.407ZM404.421 403.58V404.984H394.827V403.58H404.421ZM410.619 403.346C411.519 403.346 412.281 403.454 412.905 403.67C413.541 403.886 414.045 404.246 414.417 404.75C414.801 405.242 415.077 405.902 415.245 406.73C415.425 407.558 415.515 408.578 415.515 409.79C415.515 411.002 415.425 412.022 415.245 412.85C415.077 413.678 414.801 414.344 414.417 414.848C414.045 415.34 413.541 415.694 412.905 415.91C412.281 416.126 411.519 416.234 410.619 416.234C409.719 416.234 408.951 416.126 408.315 415.91C407.691 415.694 407.187 415.34 406.803 414.848C406.419 414.344 406.137 413.678 405.957 412.85C405.789 412.022 405.705 411.002 405.705 409.79C405.705 408.578 405.789 407.558 405.957 406.73C406.137 405.902 406.419 405.242 406.803 404.75C407.187 404.246 407.691 403.886 408.315 403.67C408.951 403.454 409.719 403.346 410.619 403.346ZM410.619 404.768C409.803 404.768 409.155 404.924 408.675 405.236C408.207 405.548 407.871 406.07 407.667 406.802C407.475 407.522 407.379 408.518 407.379 409.79C407.379 411.05 407.475 412.046 407.667 412.778C407.871 413.51 408.207 414.032 408.675 414.344C409.155 414.656 409.803 414.812 410.619 414.812C411.435 414.812 412.077 414.656 412.545 414.344C413.025 414.032 413.361 413.51 413.553 412.778C413.757 412.046 413.859 411.05 413.859 409.79C413.859 408.518 413.757 407.522 413.553 406.802C413.361 406.07 413.025 405.548 412.545 405.236C412.077 404.924 411.435 404.768 410.619 404.768ZM425.829 403.58L425.685 404.894H419.781V416H418.197V403.58C418.845 403.544 419.487 403.52 420.123 403.508C420.771 403.484 421.413 403.472 422.049 403.472C422.685 403.472 423.315 403.484 423.939 403.508C424.575 403.52 425.205 403.544 425.829 403.58ZM422.409 408.926C423.441 408.926 424.251 409.046 424.839 409.286C425.439 409.514 425.865 409.892 426.117 410.42C426.369 410.948 426.495 411.668 426.495 412.58C426.495 413.384 426.405 414.026 426.225 414.506C426.045 414.974 425.775 415.328 425.415 415.568C425.055 415.808 424.599 415.964 424.047 416.036C423.507 416.12 422.871 416.162 422.139 416.162C421.695 416.162 421.263 416.156 420.843 416.144C420.423 416.132 419.997 416.114 419.565 416.09C419.145 416.066 418.701 416.036 418.233 416L418.485 414.74C418.749 414.752 419.223 414.764 419.907 414.776C420.603 414.788 421.437 414.794 422.409 414.794C423.069 414.794 423.579 414.734 423.939 414.614C424.299 414.494 424.545 414.272 424.677 413.948C424.821 413.612 424.893 413.132 424.893 412.508C424.893 411.92 424.827 411.458 424.695 411.122C424.575 410.786 424.335 410.546 423.975 410.402C423.615 410.246 423.093 410.168 422.409 410.168H418.467V408.926H422.409ZM433.256 403.418C434.252 403.418 435.038 403.532 435.614 403.76C436.19 403.988 436.604 404.384 436.856 404.948C437.108 405.5 437.234 406.286 437.234 407.306C437.234 408.326 437.108 409.118 436.856 409.682C436.616 410.246 436.214 410.642 435.65 410.87C435.098 411.086 434.354 411.194 433.418 411.194C432.914 411.194 432.428 411.182 431.96 411.158C431.504 411.134 431.084 411.104 430.7 411.068C430.316 411.02 429.986 410.972 429.71 410.924C429.446 410.876 429.26 410.834 429.152 410.798L429.206 409.826C429.842 409.826 430.502 409.826 431.186 409.826C431.87 409.826 432.548 409.826 433.22 409.826C433.82 409.814 434.294 409.742 434.642 409.61C435.002 409.466 435.254 409.214 435.398 408.854C435.554 408.482 435.632 407.966 435.632 407.306C435.632 406.634 435.554 406.118 435.398 405.758C435.254 405.398 435.002 405.146 434.642 405.002C434.294 404.858 433.82 404.786 433.22 404.786C432.236 404.786 431.384 404.792 430.664 404.804C429.956 404.816 429.476 404.834 429.224 404.858L428.972 403.58C429.428 403.532 429.854 403.496 430.25 403.472C430.646 403.448 431.078 403.436 431.546 403.436C432.014 403.424 432.584 403.418 433.256 403.418ZM430.556 403.58V416H428.972V403.58H430.556ZM444.449 403.58C444.593 403.58 444.719 403.622 444.827 403.706C444.935 403.778 445.007 403.88 445.043 404.012L449.039 416H447.401L444.179 405.812C444.131 405.644 444.077 405.476 444.017 405.308C443.969 405.128 443.921 404.96 443.873 404.804H443.369C443.321 404.96 443.273 405.128 443.225 405.308C443.177 405.476 443.123 405.644 443.063 405.812L439.841 416H438.203L442.199 404.012C442.235 403.88 442.307 403.778 442.415 403.706C442.523 403.622 442.649 403.58 442.793 403.58H444.449ZM446.753 410.744V412.112H440.453V410.744H446.753ZM464.683 403.58C464.455 404.24 464.233 404.858 464.017 405.434C463.813 406.01 463.603 406.538 463.387 407.018C463.171 407.486 462.931 407.9 462.667 408.26C462.403 408.608 462.103 408.89 461.767 409.106C461.443 409.31 461.059 409.436 460.615 409.484V409.556C461.083 409.604 461.491 409.73 461.839 409.934C462.199 410.138 462.511 410.426 462.775 410.798C463.051 411.158 463.303 411.596 463.531 412.112C463.771 412.616 464.005 413.198 464.233 413.858C464.473 414.506 464.731 415.22 465.007 416H463.333C462.985 415.064 462.673 414.236 462.397 413.516C462.121 412.796 461.839 412.19 461.551 411.698C461.275 411.194 460.951 410.816 460.579 410.564C460.219 410.3 459.775 410.168 459.247 410.168L459.265 408.89C459.757 408.89 460.177 408.758 460.525 408.494C460.885 408.218 461.203 407.84 461.479 407.36C461.755 406.88 462.019 406.322 462.271 405.686C462.523 405.038 462.787 404.336 463.063 403.58H464.683ZM451.723 403.58C451.999 404.336 452.257 405.038 452.497 405.686C452.749 406.322 453.013 406.88 453.289 407.36C453.565 407.84 453.883 408.218 454.243 408.494C454.603 408.758 455.023 408.89 455.503 408.89L455.521 410.168C454.993 410.168 454.543 410.3 454.171 410.564C453.811 410.816 453.487 411.194 453.199 411.698C452.923 412.19 452.647 412.796 452.371 413.516C452.095 414.236 451.783 415.064 451.435 416H449.779C450.055 415.22 450.307 414.506 450.535 413.858C450.775 413.198 451.009 412.616 451.237 412.112C451.465 411.596 451.717 411.158 451.993 410.798C452.269 410.426 452.581 410.138 452.929 409.934C453.277 409.73 453.685 409.604 454.153 409.556V409.484C453.709 409.436 453.319 409.31 452.983 409.106C452.659 408.89 452.365 408.608 452.101 408.26C451.849 407.9 451.615 407.486 451.399 407.018C451.183 406.538 450.967 406.01 450.751 405.434C450.547 404.858 450.331 404.24 450.103 403.58H451.723ZM457.051 408.89V410.168H454.981V408.89H457.051ZM458.185 403.58V407.468C458.185 407.828 458.167 408.17 458.131 408.494C458.107 408.818 458.047 409.154 457.951 409.502C458.023 409.838 458.077 410.174 458.113 410.51C458.161 410.846 458.185 411.17 458.185 411.482V416H456.673V411.482C456.673 411.17 456.697 410.846 456.745 410.51C456.793 410.174 456.847 409.838 456.907 409.502C456.823 409.154 456.763 408.818 456.727 408.494C456.691 408.17 456.673 407.828 456.673 407.468V403.58H458.185ZM459.805 408.89V410.168H457.843V408.89H459.805ZM469.42 403.562C470.008 403.562 470.602 403.562 471.202 403.562C471.814 403.562 472.414 403.574 473.002 403.598C473.602 403.61 474.178 403.634 474.73 403.67L474.658 404.912H469.672C469.3 404.912 469.03 405.008 468.862 405.2C468.694 405.38 468.61 405.68 468.61 406.1V413.48C468.61 413.9 468.694 414.206 468.862 414.398C469.03 414.59 469.3 414.686 469.672 414.686H474.658L474.73 415.91C474.178 415.946 473.602 415.97 473.002 415.982C472.414 415.994 471.814 416 471.202 416C470.602 416.012 470.008 416.018 469.42 416.018C468.688 416.018 468.106 415.826 467.674 415.442C467.242 415.046 467.026 414.518 467.026 413.858V405.722C467.026 405.05 467.242 404.522 467.674 404.138C468.106 403.754 468.688 403.562 469.42 403.562ZM467.332 408.8H473.956V410.078H467.332V408.8ZM478.791 403.58V416H477.207V403.58H478.791ZM484.713 408.674V410.042H478.647V408.674H484.713ZM486.099 403.58V416H484.515V403.58H486.099ZM498.536 403.58V416H497.006V406.946C497.006 406.706 497.012 406.466 497.024 406.226C497.036 405.986 497.06 405.752 497.096 405.524H497.006C496.922 405.752 496.82 405.986 496.7 406.226C496.58 406.454 496.466 406.67 496.358 406.874L490.85 416H489.23V403.58H490.76V412.544C490.76 412.796 490.748 413.048 490.724 413.3C490.712 413.54 490.694 413.78 490.67 414.02H490.742C490.838 413.792 490.946 413.564 491.066 413.336C491.198 413.108 491.324 412.886 491.444 412.67L496.898 403.58H498.536ZM503.961 403.562C504.549 403.562 505.143 403.562 505.743 403.562C506.355 403.562 506.955 403.574 507.543 403.598C508.143 403.61 508.719 403.634 509.271 403.67L509.199 404.912H504.213C503.841 404.912 503.571 405.008 503.403 405.2C503.235 405.38 503.151 405.68 503.151 406.1V413.48C503.151 413.9 503.235 414.206 503.403 414.398C503.571 414.59 503.841 414.686 504.213 414.686H509.199L509.271 415.91C508.719 415.946 508.143 415.97 507.543 415.982C506.955 415.994 506.355 416 505.743 416C505.143 416.012 504.549 416.018 503.961 416.018C503.229 416.018 502.647 415.826 502.215 415.442C501.783 415.046 501.567 414.518 501.567 413.858V405.722C501.567 405.05 501.783 404.522 502.215 404.138C502.647 403.754 503.229 403.562 503.961 403.562ZM501.873 408.8H508.497V410.078H501.873V408.8Z" fill="white"/>
</svg>
