<svg width="1480" height="680" viewBox="0 0 1480 680" fill="none" xmlns="http://www.w3.org/2000/svg">
<g clip-path="url(#clip0_195_1248)" filter="url(#filter0_d_195_1248)">
<rect width="1440" height="640" transform="translate(20 16)" fill="#161A32"/>
<path d="M206.148 324.674C214.263 343.48 223.634 382.312 228.911 394.678M228.911 394.678C264.97 376.855 311.911 355.298 368.375 339.468C424.839 323.637 436.585 319.257 457.542 319.764C507.257 317.053 511.088 317.911 521.96 319.042M228.911 394.678L287.897 511.249M521.96 319.042C527.44 318.605 789.634 178.334 789.634 178.334L994.926 66.2216L1047 49.1579M521.96 319.042C515.489 366.219 492.318 400.78 461.414 448.399M1099.08 32.0943L1187.64 71.0271L1237.36 115.889L1285.16 150.509L1167.37 242.106L1112.03 301.008L1090.55 325.714M1099.08 32.0943L1047 49.1579M1099.08 32.0943L1063.33 -17.3454M1090.55 325.714L972.915 240.589L885.018 259.877L854.683 309.227M1090.55 325.714L1305.63 541.984L1301.03 588.339L1244.49 643.557M1090.55 325.714L991.344 494.117M854.683 309.227L814.038 322.545L653.996 374.985C641.409 379.876 579.353 415.377 555.904 423.433C532.455 431.489 521.208 438.204 458.1 455.48M854.683 309.227L723.393 536.541M458.1 455.48L287.897 511.249M458.1 455.48L461.414 448.399M287.897 511.249C307.133 518.536 390.464 567.335 390.464 567.335M287.897 511.249L93.5905 860.303M390.464 567.335L461.414 448.399M390.464 567.335L462.834 608.853M627.174 703.135L809.805 802.295M627.174 703.135L723.393 536.541M627.174 703.135L533.013 863.092M627.174 703.135L508.819 635.235M809.805 802.295L905.039 640.628M809.805 802.295L1070.03 941.262M809.805 802.295L712.632 965.957M723.393 536.541L905.039 640.628M905.039 640.628L991.344 494.117M905.039 640.628L1157.04 780.93M1244.49 643.557L991.344 494.117M1244.49 643.557L1157.04 780.93M1157.04 780.93L1070.03 941.262M1070.03 941.262L938.055 1097.3L712.632 965.957M712.632 965.957L533.013 863.092M712.632 965.957L623.264 1140.65M533.013 863.092L412.01 802.175M533.013 863.092L459.214 1038.12M412.01 802.175L508.819 635.235M412.01 802.175L379.49 784.291M508.819 635.235L462.834 608.853M462.834 608.853L379.49 784.291M379.49 784.291L295.746 950.348M295.746 950.348L459.214 1038.12M295.746 950.348L93.5905 860.303M459.214 1038.12L623.264 1140.65M623.264 1140.65L669.611 1162.16M93.5905 860.303L10.5298 989.443L-152.717 911.111L-64.9453 757.325M197.801 320.614C293.022 287.886 339.958 272.645 416.271 249.03L757.793 50.1508L958.365 -80.8002L1063.33 -17.3454M1063.33 -17.3454L1047 49.1579M192.143 536.629L-176.27 575.004L-221.154 661.737L-64.9453 757.325M-7.09032 792.727L-64.9453 757.325" stroke="#3B3554" stroke-width="5"/>
<g filter="url(#filter1_d_195_1248)">
<path d="M219.234 356.13L331.102 324.832M369.456 339.137L391.163 380.676M510.513 323.997L391.163 380.676M618.833 274.61L588.007 227.682L714.622 180.02L800.166 259.282L555.928 379.909M431.996 583.257L465.256 534.22L443.606 483.628L708.213 405.452M451.554 384.016L444.234 383.611M391.163 380.676L444.234 383.611M260.818 439.218L348.892 407.125L444.015 418.45L444.234 383.611M347.976 552.871L284.912 683.517L343.347 706.781L409.993 588.791M431.825 610.415L389.263 683.031M670.741 462.656L738.239 500.361M670.741 462.656L745.685 348.248M670.741 462.656L609.701 562.515M450.473 556.014L585.447 635.046M534.687 555.622L669.66 634.654M286.209 477.119L330.26 458.809M952.218 242.28L920.721 302.172M879.125 512.378L826.227 481.847L889.223 362.063M879.125 512.378L951.342 381.689M879.125 512.378C864.001 588.488 909.044 572.128 895.237 570.238M879.125 512.378L1039.68 598.533M951.342 381.689L889.223 362.063M951.342 381.689L995.137 404.116M889.223 362.063L920.721 302.172M920.721 302.172L1032.11 346.914L995.137 404.116M995.137 404.116L950.716 481.267L907.209 461.555M716.587 741.252C721.008 736.887 755.423 678.913 772.078 650.471L861.499 695.316L824.452 764.286L689.411 696.117M464.232 697.166L515.333 722.274M515.333 722.274L515.629 675.201L570.357 705.724L514.798 807.368L515.333 722.274ZM515.333 722.274L472.851 782.217M661.745 728.834L608.006 832.281M608.006 832.281L688.307 871.737L661.358 790.392M608.006 832.281L584.036 859.549L688.012 918.81L728.834 831.718L661.358 790.392M608.006 832.281L661.358 790.392M608.006 832.281L569.663 816.165M661.358 790.392L599.364 750.85C525.381 727.226 488.173 689.719 397.943 758.399M158.068 767.389C186.467 792.429 206.51 804.398 258.44 817.614L223.383 861.228C213.278 878.878 206.078 886.912 124.797 818.236L158.068 767.389ZM158.068 767.389C318.408 794.883 366.362 790.791 397.943 758.399M397.943 758.399C423.929 818.166 415.56 868.179 408.127 885.714L307.699 844.542L294.781 860.896L387.898 900.292L358.106 980.091L209.032 1105.71L109.002 1001.17M109.002 1001.17L65.3489 956.108M109.002 1001.17L64.7572 1050.25L15.5097 1021.52L65.3489 956.108M65.3489 956.108C65.3489 956.108 61.9832 909.051 109.628 901.588C157.272 894.124 178.956 939.285 178.956 939.285C179.77 957.917 163.29 963.842 65.3489 956.108ZM17.9218 637.688L171.316 698.53L10.2337 987.142L-17.193 981.838L269.732 477.196L210.32 318.152L-68.7925 453.426L-50.69 485.929L286.05 502.466M-204.471 486.645L-129.946 571.39L-78.8108 591.067L-103.448 627.391M-103.448 627.391L-119.462 651.001L-155.997 638.498L-143.023 613.091L-103.448 627.391ZM-130.879 719.852C-130.879 719.852 -156.611 736.265 -156.816 768.855C-157.021 801.444 -120.691 846.536 -120.691 846.536L-144.843 902.773C-144.843 902.773 -174.249 921.014 -179.536 888.45C-184.823 855.887 -96.2431 743.226 -96.2431 743.226M588.629 1002.55L553.644 1034.68M312.996 1166.78L446.025 1263.92L530.83 1169.38L357.594 1061.56L318.875 1105.2L406.34 1169.96L553.644 1034.68M312.996 1166.78L428.992 1061.23L357.855 1019.92L256.494 1127.21L312.996 1166.78ZM513.467 1019.2L554.152 953.832L645.381 1002.29L582.773 1060.52M582.773 1060.52L553.644 1034.68M582.773 1060.52L615.51 1094.76L749.689 1008.76M749.689 1008.76L823.212 961.631L907.073 1017.37L798.48 1110.2L698.272 1034.01L749.689 1008.76ZM749.689 1008.76L798.741 1068.56L871.458 1149.69L1043.09 929.83L977.391 897.548L1038.27 823.036M931.794 870.603L987.227 788.875L943.449 763.732L991.515 689.28" stroke="#3B3554" stroke-width="2"/>
</g>
<g filter="url(#filter2_i_195_1248)">
<path d="M566.675 121.229C991.582 -151.33 1087.7 -229.582 1274.63 -377.283L1004.86 -581.144C893.778 -490.03 717.152 -344.363 673 -326.297C628.848 -308.232 239.835 -198.733 -8.15123 -125.666L-502.152 4.24548L-316.291 511.785C13.3361 368.076 189.27 292.653 566.675 121.229Z" fill="#187BA2"/>
</g>
<path d="M-57.562 -134.989L-108.084 -117.957L-589.208 -5.02521L-580.611 -240.806L-141.402 -393.19L-57.562 -134.989ZM-57.562 -134.989L247.312 -237.77L261.249 -242.469M423.268 -297.089L677.62 -382.838L752.001 -433.618M423.268 -297.089L364.703 -440.223L252.971 -529.181L116.717 -498.804L178.824 -405.156L208.923 -331.593L261.249 -242.469M423.268 -297.089L261.249 -242.469M752.001 -433.618L984.439 -592.304L794.279 -776.039L516.257 -607.631C585.933 -556.855 730.629 -450.966 752.001 -433.618Z" stroke="#3B3554" stroke-width="5"/>
<path d="M846.626 215.436C868.599 215.334 886.273 231.66 886.146 251.86C886.09 260.712 882.628 268.849 876.905 275.208L876.899 275.214L876.893 275.221L846.002 314.777L815.607 275.506L815.601 275.5L815.595 275.494L815.073 274.897C809.746 268.679 806.593 260.806 806.647 252.23C806.774 232.031 824.654 215.538 846.626 215.436Z" fill="url(#paint0_linear_195_1248)" stroke="#F8F8FF" stroke-width="0.5"/>
<ellipse cx="17.931" cy="15.3846" rx="17.931" ry="15.3846" transform="matrix(0.999989 -0.00465574 -0.00628422 0.99998 828.624 234.061)" fill="#F8F8FF"/>
<path d="M780.366 331.811L784.226 323.478L779.167 323.501L779.173 322.537L785.362 322.508L785.357 323.32L781.521 331.806L780.366 331.811ZM791.254 323.299C790.742 323.302 790.28 323.393 789.869 323.572C789.461 323.748 789.113 324.003 788.823 324.339C788.537 324.67 788.317 325.071 788.162 325.542C788.006 326.012 787.927 326.541 787.923 327.129C787.918 327.908 788.035 328.585 788.272 329.159C788.514 329.729 788.875 330.17 789.356 330.481C789.84 330.791 790.446 330.945 791.174 330.942C791.589 330.94 791.979 330.904 792.343 330.835C792.712 330.761 793.07 330.671 793.417 330.563L793.411 331.503C793.072 331.631 792.716 331.726 792.343 331.787C791.971 331.852 791.528 331.886 791.016 331.888C790.072 331.893 789.284 331.702 788.652 331.315C788.024 330.925 787.554 330.373 787.241 329.659C786.932 328.945 786.781 328.102 786.787 327.128C786.791 326.426 786.893 325.784 787.091 325.204C787.294 324.619 787.584 324.114 787.964 323.689C788.347 323.264 788.815 322.936 789.366 322.705C789.922 322.47 790.558 322.35 791.273 322.347C791.743 322.345 792.195 322.389 792.63 322.48C793.066 322.571 793.458 322.703 793.808 322.875L793.371 323.791C793.076 323.657 792.751 323.542 792.396 323.446C792.045 323.346 791.665 323.297 791.254 323.299ZM797.91 324.658C798.74 324.654 799.354 324.838 799.754 325.208C800.154 325.579 800.351 326.172 800.346 326.989L800.316 331.718L799.548 331.722L799.351 330.694L799.301 330.694C799.104 330.949 798.9 331.164 798.687 331.338C798.475 331.509 798.228 331.639 797.948 331.729C797.673 331.815 797.334 331.859 796.932 331.861C796.509 331.863 796.133 331.79 795.804 331.644C795.479 331.497 795.222 331.274 795.033 330.975C794.849 330.675 794.758 330.295 794.761 329.833C794.766 329.139 795.044 328.605 795.596 328.23C796.149 327.855 796.988 327.648 798.114 327.609L799.314 327.552L799.317 327.127C799.32 326.526 799.194 326.106 798.937 325.866C798.681 325.626 798.318 325.507 797.848 325.509C797.484 325.511 797.137 325.565 796.806 325.673C796.475 325.78 796.161 325.906 795.864 326.052L795.545 325.253C795.86 325.091 796.22 324.952 796.627 324.836C797.034 324.719 797.462 324.66 797.91 324.658ZM799.297 328.295L798.236 328.345C797.369 328.382 796.756 328.527 796.399 328.778C796.042 329.03 795.862 329.384 795.859 329.841C795.857 330.239 795.976 330.532 796.216 330.722C796.456 330.911 796.774 331.005 797.172 331.003C797.79 331 798.297 330.826 798.693 330.481C799.088 330.137 799.288 329.622 799.293 328.936L799.297 328.295ZM805.693 324.609C805.832 324.609 805.978 324.616 806.13 324.633C806.283 324.645 806.418 324.663 806.536 324.688L806.397 325.666C806.283 325.637 806.156 325.614 806.016 325.598C805.877 325.582 805.746 325.574 805.623 325.574C805.344 325.576 805.079 325.634 804.829 325.75C804.582 325.861 804.366 326.023 804.178 326.235C803.991 326.443 803.843 326.696 803.735 326.992C803.628 327.285 803.573 327.611 803.57 327.971L803.547 331.703L802.487 331.708L802.531 324.751L803.407 324.747L803.513 326.029L803.557 326.028C803.703 325.77 803.878 325.534 804.082 325.321C804.287 325.105 804.523 324.932 804.79 324.804C805.062 324.676 805.362 324.611 805.693 324.609ZM808.922 321.801L808.906 324.271C808.905 324.554 808.895 324.829 808.876 325.096C808.862 325.363 808.85 325.57 808.84 325.718L808.897 325.718C809.09 325.404 809.367 325.138 809.728 324.921C810.089 324.703 810.548 324.593 811.107 324.59C811.979 324.586 812.671 324.886 813.183 325.488C813.7 326.087 813.955 326.981 813.947 328.17C813.942 328.953 813.82 329.613 813.579 330.152C813.339 330.69 813.002 331.098 812.569 331.375C812.135 331.652 811.625 331.792 811.036 331.795C810.486 331.798 810.034 331.698 809.68 331.497C809.33 331.291 809.061 331.04 808.872 330.745L808.79 330.746L808.568 331.68L807.806 331.683L807.868 321.806L808.922 321.801ZM810.93 325.474C810.427 325.476 810.026 325.577 809.729 325.778C809.431 325.974 809.216 326.271 809.082 326.669C808.952 327.063 808.886 327.563 808.882 328.168L808.882 328.225C808.876 329.101 809.018 329.771 809.307 330.235C809.596 330.695 810.126 330.923 810.896 330.92C811.543 330.917 812.029 330.678 812.354 330.202C812.683 329.727 812.85 329.049 812.855 328.169C812.861 327.271 812.705 326.597 812.386 326.146C812.071 325.695 811.586 325.471 810.93 325.474ZM821.787 328.127C821.783 328.698 821.706 329.209 821.555 329.658C821.404 330.107 821.188 330.487 820.906 330.797C820.625 331.107 820.285 331.346 819.886 331.513C819.492 331.675 819.045 331.758 818.546 331.76C818.08 331.762 817.653 331.684 817.265 331.525C816.881 331.362 816.548 331.126 816.266 330.819C815.989 330.511 815.774 330.133 815.62 329.685C815.47 329.238 815.397 328.728 815.401 328.157C815.406 327.395 815.539 326.747 815.8 326.213C816.062 325.674 816.432 325.264 816.912 324.982C817.397 324.697 817.971 324.552 818.635 324.549C819.27 324.546 819.824 324.685 820.296 324.967C820.772 325.248 821.14 325.657 821.399 326.193C821.662 326.725 821.791 327.37 821.787 328.127ZM816.493 328.152C816.489 328.71 816.56 329.194 816.706 329.604C816.851 330.014 817.078 330.33 817.385 330.553C817.693 330.776 818.09 330.886 818.576 330.884C819.059 330.882 819.455 330.768 819.766 330.542C820.08 330.316 820.313 329.998 820.463 329.587C820.614 329.176 820.691 328.691 820.695 328.132C820.698 327.578 820.627 327.1 820.482 326.699C820.336 326.293 820.109 325.981 819.802 325.762C819.494 325.544 819.095 325.436 818.604 325.438C817.881 325.441 817.348 325.683 817.007 326.163C816.669 326.642 816.498 327.305 816.493 328.152ZM826.925 324.51C827.75 324.507 828.373 324.707 828.794 325.111C829.215 325.511 829.422 326.158 829.417 327.051L829.388 331.583L828.347 331.588L828.375 327.125C828.379 326.545 828.248 326.112 827.983 325.826C827.723 325.539 827.32 325.397 826.774 325.4C826.003 325.403 825.46 325.624 825.145 326.061C824.829 326.499 824.668 327.132 824.663 327.961L824.64 331.605L823.586 331.61L823.63 324.653L824.481 324.649L824.633 325.651L824.69 325.651C824.84 325.405 825.029 325.198 825.259 325.032C825.489 324.862 825.745 324.734 826.029 324.648C826.313 324.558 826.612 324.512 826.925 324.51ZM837.945 331.543L836.859 331.548L836.911 323.22L833.992 323.234L833.998 322.281L840.91 322.249L840.904 323.201L837.997 323.215L837.945 331.543ZM844.819 324.427C845.412 324.424 845.919 324.553 846.34 324.814C846.762 325.074 847.083 325.441 847.304 325.914C847.526 326.382 847.634 326.932 847.63 327.562L847.626 328.216L842.821 328.239C842.829 329.055 843.028 329.676 843.419 330.102C843.81 330.527 844.363 330.739 845.078 330.735C845.518 330.733 845.907 330.691 846.247 330.609C846.586 330.527 846.938 330.407 847.302 330.249L847.297 331.176C846.944 331.334 846.595 331.45 846.247 331.523C845.904 331.597 845.497 331.635 845.028 331.637C844.359 331.64 843.776 331.507 843.278 331.239C842.785 330.966 842.402 330.566 842.131 330.038C841.859 329.51 841.725 328.864 841.73 328.098C841.735 327.349 841.864 326.701 842.117 326.154C842.374 325.602 842.732 325.177 843.191 324.879C843.654 324.581 844.197 324.43 844.819 324.427ZM844.801 325.291C844.238 325.293 843.788 325.479 843.452 325.849C843.115 326.219 842.913 326.734 842.845 327.394L846.527 327.377C846.525 326.962 846.462 326.599 846.337 326.286C846.216 325.969 846.03 325.725 845.777 325.553C845.524 325.376 845.199 325.289 844.801 325.291ZM853.908 329.564C853.905 330.009 853.791 330.384 853.565 330.689C853.343 330.991 853.024 331.219 852.608 331.373C852.197 331.527 851.705 331.606 851.134 331.608C850.647 331.611 850.227 331.575 849.872 331.5C849.517 331.425 849.206 331.319 848.941 331.181L848.947 330.209C849.229 330.348 849.567 330.473 849.96 330.586C850.353 330.698 850.754 330.753 851.165 330.751C851.766 330.749 852.202 330.649 852.474 330.453C852.746 330.257 852.883 329.992 852.886 329.658C852.887 329.467 852.833 329.301 852.724 329.157C852.619 329.01 852.44 328.869 852.187 328.734C851.934 328.596 851.583 328.445 851.136 328.282C850.693 328.115 850.309 327.95 849.984 327.786C849.663 327.619 849.415 327.414 849.239 327.174C849.067 326.934 848.982 326.621 848.984 326.236C848.988 325.648 849.228 325.196 849.704 324.88C850.184 324.561 850.811 324.399 851.586 324.396C852.005 324.394 852.396 324.434 852.759 324.517C853.127 324.596 853.469 324.704 853.785 324.842L853.425 325.688C853.138 325.567 852.831 325.465 852.506 325.382C852.181 325.298 851.849 325.258 851.51 325.259C851.024 325.262 850.649 325.344 850.385 325.506C850.126 325.668 849.996 325.888 849.994 326.168C849.993 326.383 850.051 326.561 850.168 326.7C850.29 326.839 850.484 326.969 850.75 327.091C851.016 327.212 851.366 327.355 851.801 327.518C852.236 327.676 852.611 327.842 852.928 328.014C853.244 328.182 853.486 328.388 853.654 328.632C853.826 328.873 853.91 329.183 853.908 329.564ZM857.843 330.714C858.016 330.713 858.194 330.697 858.376 330.667C858.558 330.637 858.707 330.6 858.821 330.557L858.816 331.376C858.693 331.431 858.521 331.479 858.301 331.518C858.085 331.557 857.873 331.577 857.666 331.578C857.298 331.58 856.964 331.518 856.664 331.392C856.364 331.262 856.125 331.043 855.945 330.735C855.769 330.427 855.683 330 855.686 329.454L855.712 325.329L854.722 325.333L854.725 324.819L855.724 324.402L856.153 322.889L856.787 322.886L856.777 324.498L858.815 324.489L858.81 325.314L856.772 325.324L856.746 329.418C856.744 329.854 856.841 330.179 857.038 330.394C857.24 330.609 857.508 330.715 857.843 330.714ZM863.76 331.423L863.819 322.143L864.898 322.138L864.845 330.453L868.965 330.434L868.959 331.398L863.76 331.423ZM876.414 327.873C876.41 328.444 876.333 328.954 876.182 329.403C876.031 329.853 875.815 330.232 875.534 330.543C875.253 330.853 874.913 331.091 874.514 331.258C874.119 331.421 873.672 331.503 873.173 331.506C872.707 331.508 872.281 331.43 871.892 331.271C871.508 331.107 871.175 330.872 870.894 330.564C870.616 330.257 870.401 329.879 870.247 329.431C870.098 328.983 870.025 328.474 870.028 327.902C870.033 327.141 870.166 326.493 870.428 325.958C870.689 325.42 871.06 325.01 871.54 324.728C872.024 324.442 872.598 324.298 873.263 324.295C873.897 324.292 874.451 324.431 874.923 324.712C875.399 324.994 875.767 325.402 876.026 325.939C876.289 326.47 876.419 327.115 876.414 327.873ZM871.12 327.897C871.116 328.456 871.187 328.94 871.333 329.35C871.479 329.76 871.705 330.076 872.013 330.299C872.32 330.522 872.717 330.632 873.204 330.63C873.686 330.627 874.083 330.513 874.393 330.288C874.707 330.062 874.94 329.744 875.091 329.332C875.241 328.921 875.319 328.436 875.322 327.878C875.326 327.323 875.255 326.846 875.109 326.444C874.963 326.039 874.737 325.727 874.429 325.508C874.122 325.289 873.723 325.181 873.232 325.184C872.508 325.187 871.975 325.428 871.634 325.908C871.297 326.388 871.125 327.051 871.12 327.897ZM880.999 331.469C880.373 331.472 879.822 331.346 879.345 331.09C878.869 330.834 878.499 330.442 878.235 329.914C877.972 329.387 877.843 328.721 877.848 327.917C877.853 327.075 877.997 326.386 878.28 325.852C878.567 325.313 878.959 324.914 879.455 324.653C879.952 324.393 880.516 324.261 881.146 324.258C881.493 324.256 881.827 324.291 882.149 324.361C882.474 324.427 882.74 324.513 882.947 324.618L882.624 325.502C882.413 325.418 882.168 325.343 881.889 325.277C881.614 325.21 881.356 325.177 881.115 325.179C880.633 325.181 880.23 325.286 879.907 325.495C879.588 325.704 879.347 326.01 879.184 326.413C879.025 326.815 878.944 327.311 878.94 327.899C878.936 328.462 879.01 328.942 879.159 329.339C879.313 329.736 879.542 330.039 879.846 330.25C880.153 330.456 880.538 330.557 880.999 330.555C881.367 330.554 881.699 330.514 881.996 330.436C882.293 330.355 882.562 330.26 882.804 330.153L882.798 331.093C882.565 331.212 882.304 331.305 882.016 331.369C881.732 331.434 881.393 331.467 880.999 331.469ZM887.094 324.243C887.923 324.239 888.538 324.423 888.938 324.793C889.337 325.164 889.535 325.757 889.529 326.574L889.5 331.303L888.732 331.306L888.535 330.279L888.484 330.279C888.288 330.534 888.083 330.749 887.871 330.923C887.658 331.093 887.412 331.224 887.132 331.314C886.856 331.4 886.518 331.444 886.116 331.445C885.692 331.447 885.316 331.375 884.987 331.229C884.662 331.082 884.406 330.859 884.217 330.559C884.033 330.26 883.942 329.879 883.945 329.418C883.949 328.724 884.228 328.19 884.78 327.815C885.333 327.44 886.172 327.233 887.298 327.194L888.498 327.137L888.5 326.712C888.504 326.111 888.378 325.691 888.121 325.451C887.864 325.211 887.501 325.092 887.031 325.094C886.668 325.096 886.32 325.15 885.989 325.257C885.659 325.365 885.345 325.491 885.048 325.636L884.729 324.838C885.043 324.676 885.404 324.537 885.811 324.42C886.218 324.304 886.645 324.245 887.094 324.243ZM888.48 327.88L887.42 327.929C886.552 327.967 885.94 328.112 885.583 328.363C885.226 328.614 885.046 328.969 885.043 329.426C885.04 329.823 885.159 330.117 885.399 330.306C885.639 330.496 885.958 330.589 886.356 330.587C886.974 330.585 887.48 330.411 887.876 330.066C888.272 329.722 888.472 329.207 888.476 328.521L888.48 327.88ZM893.922 330.546C894.096 330.545 894.274 330.529 894.456 330.499C894.638 330.469 894.786 330.432 894.901 330.389L894.896 331.208C894.773 331.263 894.601 331.311 894.381 331.35C894.164 331.389 893.953 331.409 893.745 331.41C893.377 331.412 893.043 331.35 892.744 331.224C892.444 331.094 892.204 330.876 892.024 330.567C891.848 330.259 891.762 329.832 891.766 329.286L891.792 325.161L890.801 325.165L890.805 324.651L891.804 324.234L892.232 322.721L892.867 322.718L892.857 324.33L894.894 324.321L894.889 325.146L892.852 325.156L892.826 329.25C892.823 329.686 892.921 330.011 893.118 330.226C893.32 330.441 893.588 330.547 893.922 330.546ZM897.402 324.309L897.358 331.266L896.304 331.271L896.348 324.314L897.402 324.309ZM896.904 321.709C897.077 321.708 897.225 321.765 897.347 321.879C897.473 321.988 897.536 322.161 897.534 322.398C897.533 322.631 897.468 322.805 897.341 322.92C897.217 323.034 897.069 323.092 896.895 323.093C896.713 323.094 896.561 323.037 896.439 322.924C896.322 322.81 896.263 322.637 896.265 322.404C896.266 322.167 896.327 321.993 896.446 321.883C896.569 321.768 896.722 321.71 896.904 321.709ZM905.613 327.737C905.609 328.308 905.532 328.818 905.381 329.268C905.23 329.717 905.014 330.097 904.733 330.407C904.451 330.717 904.111 330.955 903.713 331.122C903.318 331.285 902.871 331.367 902.372 331.37C901.906 331.372 901.479 331.294 901.091 331.135C900.707 330.971 900.374 330.736 900.093 330.428C899.815 330.121 899.6 329.743 899.446 329.295C899.296 328.847 899.223 328.338 899.227 327.766C899.232 327.005 899.365 326.357 899.626 325.822C899.888 325.284 900.259 324.874 900.739 324.592C901.223 324.306 901.797 324.162 902.462 324.159C903.096 324.156 903.65 324.295 904.122 324.576C904.598 324.858 904.966 325.266 905.225 325.803C905.488 326.335 905.618 326.979 905.613 327.737ZM900.319 327.761C900.315 328.32 900.386 328.804 900.532 329.214C900.677 329.624 900.904 329.94 901.211 330.163C901.519 330.386 901.916 330.496 902.403 330.494C902.885 330.491 903.281 330.378 903.592 330.152C903.906 329.926 904.139 329.608 904.29 329.196C904.44 328.785 904.517 328.3 904.521 327.742C904.524 327.187 904.453 326.71 904.308 326.308C904.162 325.903 903.936 325.591 903.628 325.372C903.321 325.153 902.921 325.045 902.431 325.048C901.707 325.051 901.174 325.293 900.833 325.772C900.496 326.252 900.324 326.915 900.319 327.761ZM910.751 324.12C911.577 324.116 912.2 324.317 912.62 324.721C913.041 325.121 913.248 325.767 913.243 326.66L913.214 331.192L912.173 331.197L912.201 326.735C912.205 326.155 912.074 325.722 911.81 325.436C911.549 325.149 911.146 325.007 910.6 325.01C909.83 325.013 909.287 325.234 908.971 325.671C908.655 326.108 908.494 326.742 908.489 327.571L908.466 331.214L907.413 331.219L907.456 324.263L908.307 324.259L908.459 325.261L908.516 325.26C908.666 325.014 908.856 324.808 909.085 324.642C909.315 324.472 909.572 324.344 909.856 324.258C910.14 324.167 910.438 324.122 910.751 324.12Z" fill="#7389F4"/>
</g>
<defs>
<filter id="filter0_d_195_1248" x="0" y="0" width="1480" height="680" filterUnits="userSpaceOnUse" color-interpolation-filters="sRGB">
<feFlood flood-opacity="0" result="BackgroundImageFix"/>
<feColorMatrix in="SourceAlpha" type="matrix" values="0 0 0 0 0 0 0 0 0 0 0 0 0 0 0 0 0 0 127 0" result="hardAlpha"/>
<feOffset dy="4"/>
<feGaussianBlur stdDeviation="10"/>
<feColorMatrix type="matrix" values="0 0 0 0 0 0 0 0 0 0 0 0 0 0 0 0 0 0 0.25 0"/>
<feBlend mode="normal" in2="BackgroundImageFix" result="effect1_dropShadow_195_1248"/>
<feBlend mode="normal" in="SourceGraphic" in2="effect1_dropShadow_195_1248" result="shape"/>
</filter>
<filter id="filter1_d_195_1248" x="-209.225" y="178.867" width="1257.86" height="1094.4" filterUnits="userSpaceOnUse" color-interpolation-filters="sRGB">
<feFlood flood-opacity="0" result="BackgroundImageFix"/>
<feColorMatrix in="SourceAlpha" type="matrix" values="0 0 0 0 0 0 0 0 0 0 0 0 0 0 0 0 0 0 127 0" result="hardAlpha"/>
<feOffset dy="4"/>
<feGaussianBlur stdDeviation="2"/>
<feColorMatrix type="matrix" values="0 0 0 0 0 0 0 0 0 0 0 0 0 0 0 0 0 0 0.25 0"/>
<feBlend mode="normal" in2="BackgroundImageFix" result="effect1_dropShadow_195_1248"/>
<feBlend mode="normal" in="SourceGraphic" in2="effect1_dropShadow_195_1248" result="shape"/>
</filter>
<filter id="filter2_i_195_1248" x="-502.152" y="-581.144" width="1776.78" height="1096.93" filterUnits="userSpaceOnUse" color-interpolation-filters="sRGB">
<feFlood flood-opacity="0" result="BackgroundImageFix"/>
<feBlend mode="normal" in="SourceGraphic" in2="BackgroundImageFix" result="shape"/>
<feColorMatrix in="SourceAlpha" type="matrix" values="0 0 0 0 0 0 0 0 0 0 0 0 0 0 0 0 0 0 127 0" result="hardAlpha"/>
<feOffset dy="4"/>
<feGaussianBlur stdDeviation="2"/>
<feComposite in2="hardAlpha" operator="arithmetic" k2="-1" k3="1"/>
<feColorMatrix type="matrix" values="0 0 0 0 0 0 0 0 0 0 0 0 0 0 0 0 0 0 0.25 0"/>
<feBlend mode="normal" in2="shape" result="effect1_innerShadow_195_1248"/>
</filter>
<linearGradient id="paint0_linear_195_1248" x1="872.902" y1="315.059" x2="810.822" y2="312.769" gradientUnits="userSpaceOnUse">
<stop stop-color="#7389F4"/>
<stop offset="0.389082" stop-color="#8978DC"/>
<stop offset="0.677083" stop-color="#9568C2"/>
<stop offset="1" stop-color="#9A59A9"/>
</linearGradient>
<clipPath id="clip0_195_1248">
<rect width="1440" height="640" fill="white" transform="translate(20 16)"/>
</clipPath>
</defs>
</svg>
