<svg width="250" height="56" viewBox="0 0 250 56" fill="none" xmlns="http://www.w3.org/2000/svg">
<g clip-path="url(#clip0_333_1948)">
<g clip-path="url(#clip1_333_1948)">
<mask id="mask0_333_1948" style="mask-type:luminance" maskUnits="userSpaceOnUse" x="0" y="0" width="250" height="56">
<path d="M250 0.800049H0V55.8H250V0.800049Z" fill="white"/>
</mask>
<g mask="url(#mask0_333_1948)">
<mask id="mask1_333_1948" style="mask-type:alpha" maskUnits="userSpaceOnUse" x="0" y="0" width="250" height="56">
<path d="M95.6205 50.5107H92.9126V51.9154H95.6348C95.9332 51.9154 96.1578 51.8556 96.3106 51.7361C96.461 51.6188 96.5374 51.4422 96.5374 51.2081C96.5374 50.9764 96.461 50.802 96.3106 50.6849C96.1578 50.5678 95.9286 50.5107 95.6205 50.5107ZM95.9358 52.7896H92.9128V54.7532H95.9358C96.263 54.7532 96.5161 54.6673 96.6975 54.4929C96.8769 54.321 96.9673 54.0772 96.9673 53.7642C96.9673 53.456 96.8769 53.2172 96.6975 53.0452C96.5161 52.8757 96.263 52.7896 95.9358 52.7896ZM91.9814 55.6132V49.6508H95.6493C96.2559 49.6508 96.7168 49.7749 97.0295 50.0257C97.3423 50.2742 97.4976 50.6421 97.4976 51.1244C97.4976 51.3682 97.4497 51.5833 97.352 51.7717C97.2541 51.9606 97.1107 52.1133 96.9245 52.2306C97.2565 52.4168 97.5072 52.6437 97.6743 52.9137C97.8438 53.1812 97.9275 53.4845 97.9275 53.8191C97.9275 54.3757 97.7413 54.8127 97.3713 55.1328C96.9987 55.453 96.4854 55.6129 95.8311 55.6129L91.9814 55.6132ZM102.899 54.9252C103.697 54.9252 104.348 54.7102 104.852 54.2779C105.356 53.8481 105.607 53.2985 105.607 52.6321C105.607 51.9703 105.354 51.4231 104.847 50.9885C104.341 50.5562 103.692 50.3387 102.899 50.3387C102.106 50.3387 101.459 50.5536 100.958 50.986C100.456 51.4159 100.205 51.9652 100.205 52.6319C100.205 53.2983 100.456 53.8478 100.958 54.2777C101.459 54.71 102.106 54.9252 102.899 54.9252ZM102.899 55.7996C101.836 55.7996 100.96 55.4987 100.275 54.8967C99.5894 54.297 99.2455 53.5421 99.2455 52.6321C99.2455 51.7197 99.5869 50.9647 100.27 50.3699C100.955 49.7749 101.832 49.4788 102.899 49.4788C103.976 49.4788 104.857 49.7749 105.542 50.3675C106.225 50.9599 106.567 51.7148 106.567 52.6321C106.567 53.5469 106.223 54.3016 105.538 54.9013C104.852 55.5009 103.973 55.7996 102.899 55.7996ZM109.031 52.1304H112.207C112.529 52.1304 112.775 52.0612 112.945 51.9202C113.114 51.7794 113.2 51.5787 113.2 51.316C113.2 51.0554 113.114 50.8547 112.945 50.7185C112.775 50.5801 112.529 50.5107 112.207 50.5107H109.031V52.1304ZM109.031 53.0048V55.6134H108.099V49.651H112.207C112.818 49.651 113.295 49.7991 113.642 50.0927C113.988 50.3866 114.16 50.7949 114.16 51.3181C114.16 51.741 114.024 52.1089 113.749 52.4195C113.477 52.73 113.121 52.9211 112.682 52.9903L114.346 55.6132H113.331L111.636 53.0046L109.031 53.0048ZM115.865 55.6134V49.6367H116.355L120.149 53.8362V49.6367H121.066V55.6134H120.576L116.782 51.4282V55.6134H115.865ZM129.301 55.6134V50.4679H126.78V49.6367H132.754V50.4679H130.233V55.6134H129.301ZM136.821 54.9254C137.619 54.9254 138.27 54.7104 138.774 54.2781C139.278 53.8483 139.529 53.2987 139.529 52.6323C139.529 51.9705 139.276 51.4234 138.77 50.9887C138.264 50.5564 137.614 50.339 136.821 50.339C136.028 50.339 135.381 50.5538 134.88 50.9863C134.379 51.4161 134.128 51.9655 134.128 52.6321C134.128 53.2985 134.379 53.8481 134.88 54.2779C135.381 54.7102 136.029 54.9254 136.821 54.9254ZM136.821 55.7999C135.758 55.7999 134.882 55.4989 134.197 54.8969C133.512 54.2972 133.168 53.5423 133.168 52.6323C133.168 51.7199 133.509 50.965 134.192 50.3701C134.877 49.7751 135.754 49.479 136.821 49.479C137.898 49.479 138.779 49.7751 139.464 50.3677C140.148 50.9601 140.489 51.7151 140.489 52.6323C140.489 53.5471 140.145 54.3019 139.46 54.9015C138.774 55.5011 137.896 55.7999 136.821 55.7999ZM150.432 50.5109H147.724V51.9156H150.446C150.745 51.9156 150.969 51.8558 151.122 51.7364C151.273 51.6191 151.349 51.4425 151.349 51.2083C151.349 50.9766 151.273 50.8022 151.122 50.6851C150.969 50.568 150.74 50.5109 150.432 50.5109ZM150.747 52.7898H147.724V54.7534H150.747C151.075 54.7534 151.328 54.6676 151.509 54.4932C151.688 54.3212 151.779 54.0774 151.779 53.7644C151.779 53.4562 151.688 53.2174 151.509 53.0455C151.328 52.8759 151.075 52.7898 150.747 52.7898ZM146.793 55.6134V49.651H150.461C151.068 49.651 151.528 49.7751 151.841 50.026C152.154 50.2744 152.309 50.6423 152.309 51.1246C152.309 51.3684 152.261 51.5835 152.164 51.7719C152.066 51.9608 151.922 52.1135 151.736 52.2308C152.068 52.417 152.319 52.6439 152.486 52.9139C152.655 53.1814 152.739 53.4848 152.739 53.8193C152.739 54.3759 152.553 54.813 152.183 55.133C151.81 55.4532 151.297 55.6132 150.643 55.6132H146.794L146.793 55.6134ZM154.573 55.6134V49.6367H160.175V50.5109H155.504V52.0017H158.57V52.8618H155.504V54.7537H160.433V55.6138L154.573 55.6134ZM172.857 54.1516C172.518 54.6867 172.071 55.0952 171.517 55.377C170.966 55.6588 170.335 55.7999 169.631 55.7999C168.583 55.7999 167.718 55.5035 167.038 54.9087C166.359 54.3139 166.02 53.559 166.02 52.6466C166.02 51.7317 166.359 50.9768 167.038 50.3772C167.718 49.7775 168.583 49.479 169.631 49.479C170.285 49.479 170.877 49.6009 171.41 49.8469C171.942 50.0905 172.37 50.4369 172.697 50.8835L171.954 51.3994C171.708 51.0603 171.384 50.7974 170.98 50.6135C170.576 50.4297 170.127 50.339 169.633 50.339C168.867 50.339 168.234 50.5562 167.732 50.9935C167.231 51.4282 166.98 51.9753 166.98 52.6323C166.98 53.2893 167.231 53.8364 167.735 54.2711C168.239 54.708 168.871 54.9257 169.633 54.9257C170.163 54.9257 170.634 54.8204 171.04 54.6127C171.446 54.4024 171.801 54.0774 172.109 53.6357L172.857 54.1516ZM175.713 53.306H178.048L176.888 51.0153L175.713 53.306ZM173.547 55.6136L176.587 49.637H177.174L180.238 55.6136H179.237L178.461 54.0943H175.307L174.536 55.6136H173.547ZM182.074 52.1306H185.25C185.572 52.1306 185.818 52.0614 185.988 51.9204C186.157 51.7796 186.243 51.5789 186.243 51.3162C186.243 51.0557 186.157 50.8549 185.988 50.7187C185.818 50.5803 185.572 50.5109 185.25 50.5109H182.074V52.1306ZM182.074 53.005V55.6136H181.143V49.6512H185.25C185.861 49.6512 186.339 49.7993 186.685 50.0929C187.031 50.3868 187.203 50.7952 187.203 51.3184C187.203 51.7412 187.067 52.1091 186.792 52.4197C186.52 52.7303 186.164 52.9214 185.725 52.9906L187.389 55.6134H186.374L184.679 53.0048L182.074 53.005ZM192.547 50.5112H189.839V51.9158H192.561C192.86 51.9158 193.084 51.8561 193.237 51.7366C193.388 51.6193 193.464 51.4427 193.464 51.2085C193.464 50.9768 193.388 50.8024 193.237 50.6853C193.084 50.5683 192.855 50.5112 192.547 50.5112ZM192.863 52.79H189.84V54.7537H192.863C193.19 54.7537 193.443 54.6678 193.624 54.4934C193.804 54.3214 193.894 54.0776 193.894 53.7646C193.894 53.4564 193.804 53.2177 193.624 53.0457C193.443 52.8761 193.19 52.79 192.863 52.79ZM188.908 55.6136V49.6512H192.576C193.183 49.6512 193.644 49.7753 193.956 50.0262C194.269 50.2746 194.424 50.6425 194.424 51.1249C194.424 51.3687 194.376 51.5837 194.279 51.7722C194.181 51.9611 194.037 52.1137 193.851 52.231C194.183 52.4173 194.434 52.6442 194.601 52.9141C194.771 53.1816 194.854 53.485 194.854 53.8195C194.854 54.3761 194.668 54.8132 194.298 55.1332C193.925 55.4535 193.412 55.6134 192.758 55.6134H188.909L188.908 55.6136ZM199.826 54.9257C200.623 54.9257 201.275 54.7106 201.779 54.2783C202.283 53.8485 202.533 53.2989 202.533 52.6325C202.533 51.9707 202.28 51.4236 201.774 50.9889C201.268 50.5566 200.618 50.3392 199.826 50.3392C199.033 50.3392 198.386 50.554 197.884 50.9865C197.383 51.4163 197.132 51.9657 197.132 52.6323C197.132 53.2987 197.383 53.8483 197.884 54.2781C198.386 54.7104 199.033 54.9257 199.826 54.9257ZM199.826 55.8001C198.763 55.8001 197.887 55.4992 197.201 54.8971C196.516 54.2975 196.172 53.5425 196.172 52.6325C196.172 51.7201 196.514 50.9652 197.196 50.3704C197.882 49.7753 198.758 49.4793 199.826 49.4793C200.903 49.4793 201.784 49.7753 202.469 50.3679C203.152 50.9603 203.493 51.7153 203.493 52.6325C203.493 53.5474 203.15 54.3021 202.464 54.9017C201.779 55.5014 200.9 55.8001 199.826 55.8001ZM205.026 55.6136V49.637H205.516L209.31 53.8364V49.637H210.227V55.6136H209.738L205.943 51.4284V55.6136H205.026Z" fill="white"/>
<path d="M63.6077 34.0366L66.8031 28.3572C67.1238 27.8252 67.5625 27.3751 68.1356 27.0068C68.7087 26.6386 69.2554 26.4585 69.7872 26.4585H88.66L91.8848 20.8118H67.343C66.5657 20.8118 65.7441 20.959 64.8836 21.2619C64.0146 21.5648 63.1818 21.9738 62.3903 22.473C61.5957 22.9804 60.8507 23.5781 60.1608 24.2737C59.474 24.961 58.9086 25.6977 58.4484 26.4831L53.073 35.9355C52.624 36.713 52.3447 37.4495 52.2552 38.137C52.1575 38.8245 52.2225 39.422 52.442 39.9293C52.6732 40.4284 53.0454 40.8295 53.5675 41.1324C54.0892 41.4353 54.7404 41.5824 55.5177 41.5824H80.0595L83.2842 35.9357H64.4032C63.8717 35.9357 63.5265 35.7558 63.3719 35.3875C63.2169 35.0193 63.295 34.5686 63.6077 34.0366ZM104.602 41.582H114.042L122.643 26.4583C123.1 25.6808 123.371 24.9443 123.469 24.2568C123.566 23.5693 123.502 22.9718 123.273 22.4644C123.051 21.9652 122.678 21.5643 122.156 21.2614C121.634 20.9585 120.983 20.8114 120.206 20.8114H101.325C100.548 20.8114 99.7263 20.9585 98.8658 21.2614C97.9968 21.5643 97.1668 21.9652 96.3725 22.4726C95.5779 22.98 94.8329 23.5776 94.1461 24.2649C93.4562 24.9605 92.8908 25.697 92.4335 26.4746L87.061 35.9186C86.6119 36.6961 86.3329 37.4324 86.2402 38.128C86.1425 38.8155 86.2073 39.413 86.4271 39.9203C86.6552 40.4277 87.0274 40.8288 87.5495 41.1317C88.0712 41.4346 88.7224 41.5818 89.4997 41.5818H102.711L105.936 35.935H98.3852C97.8536 35.935 97.5085 35.7551 97.3539 35.3868C97.1989 35.0187 97.2775 34.5686 97.5902 34.0366L100.785 28.3572C101.106 27.8252 101.545 27.3751 102.118 27.0068C102.691 26.6386 103.238 26.4585 103.77 26.4585H111.32C111.844 26.4585 112.189 26.6384 112.352 27.0068C112.507 27.3751 112.431 27.8171 112.119 28.349L104.601 41.5822L104.602 41.582ZM134.771 28.3488C135.092 27.8168 135.528 27.3749 136.101 27.0066C136.674 26.6384 137.221 26.4583 137.752 26.4583H147.193L150.409 20.8116H135.308C134.531 20.8116 133.709 20.9588 132.849 21.2617C131.98 21.5645 131.15 21.9654 130.355 22.4728C129.561 22.9802 128.816 23.5778 128.129 24.2651C127.439 24.9608 126.874 25.6972 126.416 26.4748L117.822 41.582H127.262L134.771 28.3488ZM167.905 13.2498H158.473L145.58 35.9353C145.131 36.7128 144.852 37.4493 144.762 38.1368C144.665 38.8243 144.73 39.4217 144.949 39.9291C145.18 40.4282 145.552 40.8292 146.075 41.1321C146.596 41.435 147.248 41.5822 148.025 41.5822H166.906C167.683 41.5822 168.504 41.435 169.365 41.1321C170.234 40.8292 171.067 40.4203 171.858 39.9208C172.653 39.4134 173.398 38.8159 174.088 38.1203C174.775 37.4328 175.343 36.6882 175.8 35.9107L181.168 26.4585C181.625 25.681 181.896 24.9445 181.994 24.257C182.091 23.5695 182.027 22.9721 181.798 22.4647C181.576 21.9654 181.203 21.5645 180.681 21.2617C180.159 20.9588 179.508 20.8116 178.731 20.8116H165.511L162.294 26.4583H169.845C170.369 26.4583 170.714 26.6382 170.877 27.0066C171.032 27.3749 170.953 27.825 170.641 28.357L167.445 34.0364C167.125 34.5684 166.686 35.0184 166.113 35.3866C165.54 35.7549 164.993 35.9348 164.461 35.9348H156.91C156.379 35.9348 156.034 35.7549 155.879 35.3866C155.724 35.0184 155.8 34.5763 156.112 34.0443L167.905 13.2498ZM179.563 35.9353C179.114 36.7128 178.834 37.4493 178.745 38.1368C178.647 38.8243 178.712 39.4217 178.932 39.9291C179.163 40.4282 179.535 40.8292 180.057 41.1321C180.579 41.435 181.23 41.5822 182.007 41.5822H200.888C201.666 41.5822 202.487 41.435 203.348 41.1321C204.216 40.8292 205.05 40.4203 205.841 39.9208C206.636 39.4134 207.38 38.8159 208.07 38.1203C208.757 37.4328 209.326 36.6882 209.783 35.9107L215.15 26.4585C215.607 25.681 215.879 24.9445 215.976 24.257C216.074 23.5695 216.009 22.9721 215.781 22.4647C215.558 21.9654 215.186 21.5645 214.664 21.2617C214.142 20.9588 213.491 20.8116 212.714 20.8116H193.833C193.055 20.8116 192.234 20.9588 191.373 21.2617C190.504 21.5645 189.672 21.9735 188.88 22.4728C188.085 22.9802 187.34 23.5778 186.651 24.2735C185.964 24.9608 185.398 25.6975 184.938 26.4829L179.563 35.9353ZM190.098 34.0366L193.293 28.3572C193.614 27.8252 194.052 27.3751 194.626 27.0068C195.199 26.6386 195.745 26.4585 196.277 26.4585H203.828C204.351 26.4585 204.696 26.6384 204.859 27.0068C205.014 27.3751 204.936 27.8252 204.623 28.3572L201.428 34.0366C201.107 34.5686 200.669 35.0187 200.096 35.3868C199.522 35.7551 198.976 35.935 198.444 35.935H190.893C190.361 35.935 190.016 35.7551 189.862 35.3868C189.707 35.0187 189.785 34.5686 190.098 34.0366ZM210.329 41.582H219.769L227.279 28.3488C227.599 27.8168 228.035 27.3749 228.608 27.0066C229.181 26.6384 229.728 26.4583 230.26 26.4583H237.811C238.334 26.4583 238.679 26.6382 238.842 27.0066C238.997 27.3749 238.921 27.8168 238.609 28.3488L231.091 41.582H240.532L249.126 26.4748C249.584 25.6972 249.855 24.9608 249.956 24.2651C250.053 23.5778 249.988 22.9802 249.76 22.4728C249.54 21.9654 249.168 21.5645 248.646 21.2617C248.124 20.9588 247.473 20.8116 246.696 20.8116H227.815C227.038 20.8116 226.216 20.9588 225.356 21.2617C224.487 21.5645 223.657 21.9654 222.862 22.4728C222.068 22.9802 221.323 23.5778 220.636 24.2651C219.946 24.9608 219.381 25.6972 218.923 26.4748L210.329 41.582Z" fill="white"/>
<path fill-rule="evenodd" clip-rule="evenodd" d="M7.4305 13.5688L4.84579 9.12736H46.0231L36.4308 14.6829L8.06416 14.6587L7.4305 13.5688ZM3.23309 6.35561L0 0.800049H60.4011L50.4961 6.53661V6.35561H3.23309ZM61.8135 3.17643L32.0068 55.7993L23.8669 41.8116L37.9087 17.0215L61.8135 3.17643Z" fill="white"/>
</mask>
<g mask="url(#mask1_333_1948)">
<path d="M250 0.800049H0V55.8H250V0.800049Z" fill="url(#paint0_linear_333_1948)"/>
</g>
</g>
</g>
</g>
<defs>
<linearGradient id="paint0_linear_333_1948" x1="-1.80317e-06" y1="28.6235" x2="250" y2="28.6235" gradientUnits="userSpaceOnUse">
<stop stop-color="#CD9F23"/>
<stop offset="0.235" stop-color="#F6DEB9"/>
<stop offset="0.47" stop-color="#DBB153"/>
<stop offset="0.74" stop-color="#D3A73A"/>
<stop offset="1" stop-color="#F6DDB6"/>
</linearGradient>
<clipPath id="clip0_333_1948">
<rect width="250" height="55" fill="white" transform="translate(0 0.800049)"/>
</clipPath>
<clipPath id="clip1_333_1948">
<rect width="250" height="55" fill="white" transform="translate(0 0.800049)"/>
</clipPath>
</defs>
</svg>
