<svg width="1440" height="680" viewBox="0 0 1440 680" fill="none" xmlns="http://www.w3.org/2000/svg">
<g clip-path="url(#clip0_122_1362)" filter="url(#filter0_d_122_1362)">
<rect width="1440" height="640" transform="translate(0 16)" fill="white"/>
<path d="M186.149 324.674C194.264 343.48 203.634 382.312 208.911 394.678M208.911 394.678C244.971 376.855 291.911 355.298 348.375 339.468C404.839 323.637 416.585 319.257 437.542 319.764C487.257 317.053 491.089 317.911 501.96 319.042M208.911 394.678L267.897 511.249M501.96 319.042C507.44 318.605 769.635 178.334 769.635 178.334L974.926 66.2217L1027 49.158M501.96 319.042C495.489 366.219 472.318 400.78 441.415 448.399M1079.08 32.0944L1167.64 71.0272L1217.36 115.889L1265.16 150.509L1147.37 242.106L1092.03 301.008L1070.55 325.714M1079.08 32.0944L1027 49.158M1079.08 32.0944L1043.33 -17.3453M1070.55 325.714L952.915 240.589L865.018 259.877L834.683 309.227M1070.55 325.714L1285.63 541.984L1281.03 588.339L1224.49 643.557M1070.55 325.714L971.344 494.117M834.683 309.227L794.038 322.545L633.996 374.985C621.409 379.877 559.353 415.377 535.904 423.433C512.455 431.49 501.209 438.204 438.101 455.48M834.683 309.227L703.393 536.542M438.101 455.48L267.897 511.249M438.101 455.48L441.415 448.399M267.897 511.249C287.133 518.536 370.464 567.335 370.464 567.335M267.897 511.249L73.5906 860.303M370.464 567.335L441.415 448.399M370.464 567.335L442.834 608.853M607.174 703.135L789.805 802.295M607.174 703.135L703.393 536.542M607.174 703.135L513.013 863.092M607.174 703.135L488.819 635.235M789.805 802.295L885.039 640.628M789.805 802.295L1050.03 941.262M789.805 802.295L692.633 965.957M703.393 536.542L885.039 640.628M885.039 640.628L971.344 494.117M885.039 640.628L1137.04 780.93M1224.49 643.557L971.344 494.117M1224.49 643.557L1137.04 780.93M1137.04 780.93L1050.03 941.262M1050.03 941.262L918.055 1097.3L692.633 965.957M692.633 965.957L513.013 863.092M692.633 965.957L603.264 1140.65M513.013 863.092L392.01 802.175M513.013 863.092L439.214 1038.12M392.01 802.175L488.819 635.235M392.01 802.175L359.49 784.292M488.819 635.235L442.834 608.853M442.834 608.853L359.49 784.292M359.49 784.292L275.746 950.348M275.746 950.348L439.214 1038.12M275.746 950.348L73.5906 860.303M439.214 1038.12L603.264 1140.65M603.264 1140.65L649.611 1162.16M73.5906 860.303L-9.47007 989.443L-172.717 911.111L-84.9451 757.325M177.801 320.614C273.022 287.886 319.958 272.645 396.271 249.03L737.793 50.1509L938.365 -80.8001L1043.33 -17.3453M1043.33 -17.3453L1027 49.158M172.143 536.629L-196.269 575.004L-241.153 661.737L-84.9451 757.325M-27.0902 792.727L-84.9451 757.325" stroke="#3B3554" stroke-width="5"/>
<g filter="url(#filter1_d_122_1362)">
<path d="M199.234 356.13L311.102 324.832M349.456 339.137L371.163 380.676M490.513 323.997L371.163 380.676M598.833 274.61L568.006 227.682L694.622 180.02L780.166 259.282L535.928 379.909M411.996 583.257L445.256 534.22L423.606 483.628L688.213 405.452M431.554 384.016L424.234 383.611M371.163 380.676L424.234 383.611M240.818 439.218L328.892 407.125L424.015 418.45L424.234 383.611M327.976 552.871L264.912 683.517L323.347 706.781L389.993 588.791M411.825 610.415L369.263 683.031M650.741 462.656L718.239 500.361M650.741 462.656L725.685 348.248M650.741 462.656L589.701 562.515M430.473 556.014L565.446 635.046M514.687 555.622L649.66 634.654M266.209 477.119L310.26 458.809M932.218 242.28L900.721 302.172M859.125 512.378L806.227 481.847L869.223 362.063M859.125 512.378L931.342 381.689M859.125 512.378C844.001 588.488 889.044 572.128 875.237 570.238M859.125 512.378L1019.68 598.533M931.342 381.689L869.223 362.063M931.342 381.689L975.137 404.116M869.223 362.063L900.721 302.172M900.721 302.172L1012.11 346.914L975.137 404.116M975.137 404.116L930.716 481.267L887.209 461.555M696.587 741.252C701.008 736.887 735.423 678.913 752.078 650.471L841.499 695.316L804.452 764.286L669.411 696.117M444.232 697.166L495.333 722.274M495.333 722.274L495.629 675.201L550.357 705.724L494.798 807.368L495.333 722.274ZM495.333 722.274L452.851 782.217M641.745 728.834L588.006 832.281M588.006 832.281L668.307 871.737L641.358 790.392M588.006 832.281L564.036 859.549L668.011 918.81L708.834 831.718L641.358 790.392M588.006 832.281L641.358 790.392M588.006 832.281L549.663 816.165M641.358 790.392L579.364 750.85C505.381 727.226 468.173 689.719 377.943 758.399M138.068 767.389C166.467 792.429 186.51 804.398 238.44 817.614L203.383 861.228C193.278 878.878 186.078 886.912 104.797 818.236L138.068 767.389ZM138.068 767.389C298.408 794.883 346.362 790.791 377.943 758.399M377.943 758.399C403.929 818.166 395.56 868.179 388.127 885.714L287.699 844.542L274.781 860.896L367.898 900.292L338.105 980.091L189.032 1105.71L89.0018 1001.17M89.0018 1001.17L45.3488 956.108M89.0018 1001.17L44.7572 1050.25L-4.49038 1021.52L45.3488 956.108M45.3488 956.108C45.3488 956.108 41.9832 909.052 89.6275 901.588C137.272 894.124 158.956 939.285 158.956 939.285C159.77 957.917 143.29 963.842 45.3488 956.108ZM-2.07827 637.688L151.316 698.53L-9.76637 987.142L-37.1931 981.838L249.732 477.196L190.32 318.152L-88.7925 453.426L-70.6901 485.929L266.05 502.466M-224.471 486.645L-149.946 571.39L-98.8109 591.067L-123.448 627.391M-123.448 627.391L-139.462 651.001L-175.997 638.498L-163.023 613.091L-123.448 627.391ZM-150.879 719.852C-150.879 719.852 -176.612 736.265 -176.816 768.855C-177.021 801.444 -140.691 846.536 -140.691 846.536L-164.843 902.773C-164.843 902.773 -194.249 921.014 -199.536 888.45C-204.823 855.887 -116.243 743.226 -116.243 743.226M568.629 1002.55L533.644 1034.68M292.996 1166.78L426.025 1263.92L510.83 1169.38L337.593 1061.56L298.875 1105.2L386.34 1169.96L533.644 1034.68M292.996 1166.78L408.992 1061.23L337.855 1019.92L236.494 1127.21L292.996 1166.78ZM493.467 1019.2L534.152 953.832L625.381 1002.29L562.773 1060.52M562.773 1060.52L533.644 1034.68M562.773 1060.52L595.51 1094.76L729.689 1008.76M729.689 1008.76L803.212 961.632L887.073 1017.37L778.48 1110.2L678.272 1034.01L729.689 1008.76ZM729.689 1008.76L778.741 1068.56L851.458 1149.69L1023.09 929.83L957.391 897.548L1018.27 823.036M911.794 870.603L967.227 788.875L923.449 763.732L971.515 689.28" stroke="#3B3554" stroke-width="2"/>
</g>
<g filter="url(#filter2_i_122_1362)">
<path d="M546.675 121.229C971.582 -151.33 1067.7 -229.582 1254.63 -377.283L984.864 -581.144C873.778 -490.03 697.152 -344.363 653 -326.298C608.848 -308.232 219.836 -198.733 -28.1511 -125.666L-522.152 4.24536L-336.291 511.785C-6.66379 368.076 169.27 292.652 546.675 121.229Z" fill="#187BA2"/>
</g>
<path d="M-77.5621 -134.989L-128.084 -117.957L-609.208 -5.02518L-600.611 -240.806L-161.402 -393.19L-77.5621 -134.989ZM-77.5621 -134.989L227.312 -237.77L241.249 -242.469M403.268 -297.089L657.62 -382.838L732 -433.618M403.268 -297.089L344.703 -440.223L232.971 -529.181L96.7168 -498.804L158.824 -405.156L188.923 -331.593L241.249 -242.469M403.268 -297.089L241.249 -242.469M732 -433.618L964.439 -592.304L774.279 -776.039L496.257 -607.631C565.933 -556.855 710.628 -450.966 732 -433.618Z" stroke="#3B3554" stroke-width="5"/>
<path d="M826.626 215.436C848.599 215.334 866.273 231.66 866.146 251.86C866.09 260.712 862.628 268.849 856.905 275.208L856.899 275.214L856.893 275.221L826.002 314.777L795.607 275.506L795.601 275.499L795.595 275.494L795.073 274.896C789.746 268.679 786.593 260.806 786.647 252.23C786.774 232.03 804.654 215.538 826.626 215.436Z" fill="url(#paint0_linear_122_1362)" stroke="#161616" stroke-width="0.5"/>
<ellipse cx="17.931" cy="15.3846" rx="17.931" ry="15.3846" transform="matrix(0.999989 -0.00465574 -0.00628422 0.99998 808.623 234.061)" fill="#161616"/>
<path d="M760.366 331.811L764.226 323.478L759.167 323.502L759.173 322.537L765.362 322.508L765.357 323.32L761.521 331.806L760.366 331.811ZM771.254 323.299C770.742 323.302 770.28 323.393 769.869 323.572C769.461 323.748 769.113 324.003 768.823 324.339C768.537 324.67 768.317 325.071 768.162 325.542C768.006 326.012 767.927 326.541 767.923 327.13C767.918 327.908 768.035 328.585 768.272 329.159C768.514 329.729 768.875 330.17 769.356 330.481C769.84 330.791 770.446 330.945 771.174 330.942C771.589 330.94 771.979 330.904 772.343 330.835C772.712 330.761 773.07 330.671 773.417 330.563L773.411 331.503C773.072 331.631 772.716 331.726 772.343 331.787C771.971 331.852 771.528 331.886 771.016 331.888C770.072 331.893 769.284 331.702 768.652 331.315C768.024 330.925 767.554 330.373 767.241 329.659C766.932 328.945 766.781 328.102 766.787 327.128C766.791 326.426 766.893 325.784 767.091 325.204C767.294 324.619 767.584 324.114 767.964 323.689C768.347 323.264 768.815 322.936 769.366 322.705C769.922 322.47 770.558 322.35 771.273 322.347C771.743 322.345 772.195 322.389 772.63 322.48C773.066 322.571 773.458 322.703 773.808 322.875L773.371 323.791C773.076 323.657 772.751 323.542 772.396 323.446C772.045 323.346 771.665 323.297 771.254 323.299ZM777.91 324.658C778.74 324.654 779.354 324.838 779.754 325.208C780.154 325.579 780.351 326.172 780.346 326.989L780.316 331.718L779.548 331.722L779.351 330.694L779.301 330.695C779.104 330.949 778.9 331.164 778.687 331.338C778.475 331.509 778.228 331.639 777.948 331.729C777.673 331.815 777.334 331.859 776.932 331.861C776.509 331.863 776.133 331.79 775.804 331.644C775.479 331.497 775.222 331.274 775.033 330.975C774.849 330.675 774.758 330.295 774.761 329.833C774.766 329.139 775.044 328.605 775.596 328.23C776.149 327.855 776.988 327.648 778.114 327.609L779.314 327.553L779.317 327.127C779.32 326.526 779.194 326.106 778.937 325.866C778.681 325.626 778.318 325.507 777.848 325.509C777.484 325.511 777.137 325.565 776.806 325.673C776.475 325.78 776.161 325.906 775.864 326.052L775.545 325.253C775.86 325.091 776.22 324.952 776.627 324.836C777.034 324.72 777.462 324.66 777.91 324.658ZM779.297 328.295L778.236 328.345C777.369 328.383 776.756 328.527 776.399 328.778C776.042 329.03 775.862 329.384 775.859 329.841C775.857 330.239 775.976 330.532 776.216 330.722C776.456 330.911 776.774 331.005 777.172 331.003C777.79 331 778.297 330.826 778.693 330.482C779.088 330.137 779.288 329.622 779.293 328.936L779.297 328.295ZM785.693 324.609C785.832 324.609 785.978 324.617 786.13 324.633C786.283 324.645 786.418 324.663 786.536 324.688L786.397 325.666C786.283 325.637 786.156 325.614 786.016 325.598C785.877 325.582 785.746 325.574 785.623 325.575C785.344 325.576 785.079 325.634 784.829 325.75C784.582 325.861 784.366 326.023 784.178 326.235C783.991 326.443 783.843 326.696 783.735 326.992C783.628 327.285 783.573 327.611 783.57 327.971L783.547 331.703L782.487 331.708L782.531 324.751L783.407 324.747L783.513 326.029L783.557 326.028C783.703 325.77 783.878 325.534 784.082 325.321C784.287 325.105 784.523 324.932 784.79 324.804C785.062 324.676 785.362 324.611 785.693 324.609ZM788.922 321.802L788.906 324.271C788.905 324.554 788.895 324.829 788.876 325.096C788.862 325.363 788.85 325.57 788.84 325.718L788.897 325.718C789.09 325.404 789.367 325.138 789.728 324.921C790.089 324.703 790.548 324.593 791.107 324.591C791.979 324.587 792.671 324.886 793.183 325.489C793.7 326.087 793.955 326.981 793.947 328.17C793.942 328.953 793.82 329.613 793.579 330.152C793.339 330.691 793.002 331.098 792.569 331.375C792.135 331.652 791.625 331.792 791.036 331.795C790.486 331.798 790.034 331.698 789.68 331.497C789.33 331.291 789.061 331.041 788.872 330.745L788.79 330.746L788.568 331.68L787.806 331.683L787.868 321.806L788.922 321.802ZM790.93 325.474C790.427 325.476 790.026 325.577 789.729 325.778C789.431 325.974 789.216 326.271 789.082 326.669C788.952 327.063 788.886 327.563 788.882 328.168L788.882 328.225C788.876 329.101 789.018 329.771 789.307 330.235C789.596 330.695 790.126 330.923 790.896 330.92C791.543 330.917 792.029 330.678 792.354 330.202C792.683 329.727 792.85 329.049 792.855 328.169C792.861 327.272 792.705 326.597 792.386 326.146C792.071 325.695 791.586 325.471 790.93 325.474ZM801.787 328.127C801.783 328.698 801.706 329.209 801.555 329.658C801.404 330.107 801.188 330.487 800.906 330.797C800.625 331.107 800.285 331.346 799.886 331.513C799.492 331.675 799.045 331.758 798.546 331.76C798.08 331.762 797.653 331.684 797.265 331.525C796.881 331.362 796.548 331.126 796.266 330.819C795.989 330.511 795.774 330.133 795.62 329.686C795.47 329.238 795.397 328.728 795.401 328.157C795.406 327.395 795.539 326.747 795.8 326.213C796.062 325.674 796.432 325.264 796.912 324.982C797.397 324.697 797.971 324.552 798.635 324.549C799.27 324.546 799.824 324.685 800.296 324.967C800.772 325.248 801.14 325.657 801.399 326.193C801.662 326.725 801.791 327.37 801.787 328.127ZM796.493 328.152C796.489 328.71 796.56 329.195 796.706 329.604C796.851 330.014 797.078 330.33 797.385 330.553C797.693 330.776 798.09 330.886 798.576 330.884C799.059 330.882 799.455 330.768 799.766 330.542C800.08 330.316 800.313 329.998 800.463 329.587C800.614 329.176 800.691 328.691 800.695 328.132C800.698 327.578 800.627 327.1 800.482 326.699C800.336 326.293 800.109 325.981 799.802 325.762C799.494 325.544 799.095 325.436 798.604 325.438C797.881 325.441 797.348 325.683 797.007 326.163C796.669 326.642 796.498 327.305 796.493 328.152ZM806.925 324.511C807.75 324.507 808.373 324.707 808.794 325.111C809.215 325.511 809.422 326.158 809.417 327.051L809.388 331.583L808.347 331.588L808.375 327.125C808.379 326.546 808.248 326.112 807.983 325.826C807.723 325.539 807.32 325.397 806.774 325.4C806.003 325.403 805.46 325.624 805.145 326.061C804.829 326.499 804.668 327.132 804.663 327.961L804.64 331.605L803.586 331.61L803.63 324.653L804.481 324.649L804.633 325.651L804.69 325.651C804.84 325.405 805.029 325.199 805.259 325.032C805.489 324.862 805.745 324.734 806.029 324.648C806.313 324.558 806.612 324.512 806.925 324.511ZM817.945 331.543L816.859 331.548L816.911 323.22L813.992 323.234L813.998 322.281L820.91 322.249L820.904 323.201L817.997 323.215L817.945 331.543ZM824.819 324.427C825.412 324.424 825.919 324.553 826.34 324.814C826.762 325.074 827.083 325.441 827.304 325.914C827.526 326.382 827.634 326.932 827.63 327.562L827.626 328.216L822.821 328.239C822.829 329.055 823.028 329.676 823.419 330.102C823.81 330.528 824.363 330.739 825.078 330.735C825.518 330.733 825.907 330.691 826.247 330.609C826.586 330.527 826.938 330.407 827.302 330.249L827.297 331.176C826.944 331.334 826.595 331.45 826.247 331.523C825.904 331.597 825.497 331.635 825.028 331.637C824.359 331.64 823.776 331.507 823.278 331.239C822.785 330.966 822.402 330.566 822.131 330.038C821.859 329.51 821.725 328.864 821.73 328.098C821.735 327.349 821.864 326.701 822.117 326.154C822.374 325.602 822.732 325.177 823.191 324.879C823.654 324.581 824.197 324.43 824.819 324.427ZM824.801 325.291C824.238 325.293 823.788 325.479 823.452 325.849C823.115 326.219 822.913 326.734 822.845 327.394L826.527 327.377C826.525 326.962 826.462 326.599 826.337 326.286C826.216 325.97 826.03 325.725 825.777 325.553C825.524 325.376 825.199 325.289 824.801 325.291ZM833.908 329.564C833.905 330.009 833.791 330.384 833.565 330.689C833.343 330.991 833.024 331.219 832.608 331.373C832.197 331.527 831.705 331.606 831.134 331.608C830.647 331.611 830.227 331.575 829.872 331.5C829.517 331.426 829.206 331.319 828.941 331.181L828.947 330.21C829.229 330.348 829.567 330.473 829.96 330.586C830.353 330.698 830.754 330.753 831.165 330.751C831.766 330.749 832.202 330.649 832.474 330.453C832.746 330.257 832.883 329.992 832.886 329.658C832.887 329.468 832.833 329.301 832.724 329.157C832.619 329.01 832.44 328.869 832.187 328.735C831.934 328.596 831.583 328.445 831.136 328.282C830.693 328.115 830.309 327.95 829.984 327.786C829.663 327.619 829.415 327.415 829.239 327.174C829.067 326.934 828.982 326.621 828.984 326.236C828.988 325.648 829.228 325.196 829.704 324.881C830.184 324.561 830.811 324.399 831.586 324.396C832.005 324.394 832.396 324.434 832.759 324.517C833.127 324.596 833.469 324.704 833.785 324.843L833.425 325.688C833.138 325.567 832.831 325.465 832.506 325.382C832.181 325.299 831.849 325.258 831.51 325.259C831.024 325.262 830.649 325.344 830.385 325.506C830.126 325.668 829.996 325.888 829.994 326.168C829.993 326.384 830.051 326.561 830.168 326.7C830.29 326.839 830.484 326.969 830.75 327.091C831.016 327.212 831.366 327.355 831.801 327.518C832.236 327.676 832.611 327.842 832.928 328.014C833.244 328.182 833.486 328.388 833.654 328.632C833.826 328.873 833.91 329.184 833.908 329.564ZM837.843 330.714C838.016 330.713 838.194 330.698 838.376 330.667C838.558 330.637 838.707 330.6 838.821 330.557L838.816 331.376C838.693 331.431 838.521 331.479 838.301 331.518C838.085 331.557 837.873 331.577 837.666 331.578C837.298 331.58 836.964 331.518 836.664 331.392C836.364 331.262 836.125 331.044 835.945 330.735C835.769 330.427 835.683 330 835.686 329.455L835.712 325.329L834.722 325.333L834.725 324.819L835.724 324.402L836.153 322.889L836.787 322.886L836.777 324.499L838.815 324.489L838.81 325.314L836.772 325.324L836.746 329.418C836.744 329.854 836.841 330.179 837.038 330.394C837.24 330.609 837.508 330.716 837.843 330.714ZM843.76 331.423L843.819 322.143L844.898 322.138L844.845 330.453L848.965 330.434L848.959 331.399L843.76 331.423ZM856.414 327.873C856.41 328.444 856.333 328.954 856.182 329.404C856.031 329.853 855.815 330.233 855.534 330.543C855.253 330.853 854.913 331.092 854.514 331.258C854.119 331.421 853.672 331.504 853.173 331.506C852.707 331.508 852.281 331.43 851.892 331.271C851.508 331.107 851.175 330.872 850.894 330.564C850.616 330.257 850.401 329.879 850.247 329.431C850.098 328.983 850.025 328.474 850.028 327.902C850.033 327.141 850.166 326.493 850.428 325.958C850.689 325.42 851.06 325.01 851.54 324.728C852.024 324.442 852.598 324.298 853.263 324.295C853.897 324.292 854.451 324.431 854.923 324.712C855.399 324.994 855.767 325.402 856.026 325.939C856.289 326.471 856.419 327.115 856.414 327.873ZM851.12 327.897C851.116 328.456 851.187 328.94 851.333 329.35C851.479 329.76 851.705 330.076 852.013 330.299C852.32 330.522 852.717 330.632 853.204 330.63C853.686 330.628 854.083 330.514 854.393 330.288C854.707 330.062 854.94 329.744 855.091 329.332C855.241 328.921 855.319 328.436 855.322 327.878C855.326 327.323 855.255 326.846 855.109 326.444C854.963 326.039 854.737 325.727 854.429 325.508C854.122 325.289 853.723 325.181 853.232 325.184C852.508 325.187 851.975 325.429 851.634 325.908C851.297 326.388 851.125 327.051 851.12 327.897ZM860.999 331.469C860.373 331.472 859.822 331.346 859.345 331.09C858.869 330.834 858.499 330.442 858.235 329.914C857.972 329.387 857.843 328.721 857.848 327.917C857.853 327.075 857.997 326.386 858.28 325.852C858.567 325.313 858.959 324.914 859.455 324.653C859.952 324.393 860.516 324.261 861.146 324.258C861.493 324.257 861.827 324.291 862.149 324.361C862.474 324.428 862.74 324.513 862.947 324.618L862.624 325.502C862.413 325.418 862.168 325.343 861.889 325.277C861.614 325.21 861.356 325.178 861.115 325.179C860.633 325.181 860.23 325.286 859.907 325.495C859.588 325.704 859.347 326.01 859.184 326.413C859.025 326.815 858.944 327.311 858.94 327.899C858.936 328.462 859.01 328.942 859.159 329.339C859.313 329.736 859.542 330.04 859.846 330.25C860.153 330.456 860.538 330.558 860.999 330.555C861.367 330.554 861.699 330.514 861.996 330.436C862.293 330.355 862.562 330.26 862.804 330.153L862.798 331.093C862.565 331.212 862.304 331.305 862.016 331.369C861.732 331.434 861.393 331.468 860.999 331.469ZM867.094 324.243C867.923 324.239 868.538 324.423 868.938 324.793C869.337 325.164 869.535 325.757 869.529 326.574L869.5 331.303L868.732 331.306L868.535 330.279L868.484 330.279C868.288 330.534 868.083 330.749 867.871 330.923C867.658 331.094 867.412 331.224 867.132 331.314C866.856 331.4 866.518 331.444 866.116 331.446C865.692 331.448 865.316 331.375 864.987 331.229C864.662 331.082 864.406 330.859 864.217 330.559C864.033 330.26 863.942 329.879 863.945 329.418C863.949 328.724 864.228 328.19 864.78 327.815C865.333 327.44 866.172 327.233 867.298 327.194L868.498 327.137L868.5 326.712C868.504 326.111 868.378 325.691 868.121 325.451C867.864 325.211 867.501 325.092 867.031 325.094C866.668 325.096 866.32 325.15 865.989 325.257C865.659 325.365 865.345 325.491 865.048 325.636L864.729 324.838C865.043 324.676 865.404 324.537 865.811 324.42C866.218 324.304 866.645 324.245 867.094 324.243ZM868.48 327.88L867.42 327.929C866.552 327.967 865.94 328.112 865.583 328.363C865.226 328.615 865.046 328.969 865.043 329.426C865.04 329.824 865.159 330.117 865.399 330.306C865.639 330.496 865.958 330.589 866.356 330.588C866.974 330.585 867.48 330.411 867.876 330.066C868.272 329.722 868.472 329.207 868.476 328.521L868.48 327.88ZM873.922 330.546C874.096 330.545 874.274 330.53 874.456 330.499C874.638 330.469 874.786 330.432 874.901 330.389L874.896 331.208C874.773 331.264 874.601 331.311 874.381 331.35C874.164 331.389 873.953 331.409 873.745 331.41C873.377 331.412 873.043 331.35 872.744 331.224C872.444 331.095 872.204 330.876 872.024 330.568C871.848 330.259 871.762 329.832 871.766 329.287L871.792 325.161L870.801 325.165L870.805 324.651L871.804 324.234L872.232 322.721L872.867 322.718L872.857 324.331L874.894 324.321L874.889 325.146L872.852 325.156L872.826 329.25C872.823 329.686 872.921 330.011 873.118 330.226C873.32 330.441 873.588 330.548 873.922 330.546ZM877.402 324.309L877.358 331.266L876.304 331.271L876.348 324.314L877.402 324.309ZM876.904 321.709C877.077 321.708 877.225 321.765 877.347 321.879C877.473 321.988 877.536 322.161 877.534 322.398C877.533 322.631 877.468 322.805 877.341 322.92C877.217 323.034 877.069 323.092 876.895 323.093C876.713 323.094 876.561 323.037 876.439 322.924C876.322 322.81 876.263 322.637 876.265 322.404C876.266 322.167 876.327 321.993 876.446 321.883C876.569 321.768 876.722 321.71 876.904 321.709ZM885.613 327.737C885.609 328.308 885.532 328.818 885.381 329.268C885.23 329.717 885.014 330.097 884.733 330.407C884.451 330.717 884.111 330.956 883.713 331.122C883.318 331.285 882.871 331.368 882.372 331.37C881.906 331.372 881.479 331.294 881.091 331.135C880.707 330.971 880.374 330.736 880.093 330.428C879.815 330.121 879.6 329.743 879.446 329.295C879.296 328.847 879.223 328.338 879.227 327.767C879.232 327.005 879.365 326.357 879.626 325.822C879.888 325.284 880.259 324.874 880.739 324.592C881.223 324.306 881.797 324.162 882.462 324.159C883.096 324.156 883.65 324.295 884.122 324.576C884.598 324.858 884.966 325.266 885.225 325.803C885.488 326.335 885.618 326.979 885.613 327.737ZM880.319 327.761C880.315 328.32 880.386 328.804 880.532 329.214C880.677 329.624 880.904 329.94 881.211 330.163C881.519 330.386 881.916 330.496 882.403 330.494C882.885 330.492 883.281 330.378 883.592 330.152C883.906 329.926 884.139 329.608 884.29 329.197C884.44 328.785 884.517 328.3 884.521 327.742C884.524 327.188 884.453 326.71 884.308 326.308C884.162 325.903 883.936 325.591 883.628 325.372C883.321 325.154 882.921 325.045 882.431 325.048C881.707 325.051 881.174 325.293 880.833 325.772C880.496 326.252 880.324 326.915 880.319 327.761ZM890.751 324.12C891.577 324.116 892.2 324.317 892.62 324.721C893.041 325.121 893.248 325.767 893.243 326.66L893.214 331.192L892.173 331.197L892.201 326.735C892.205 326.155 892.074 325.722 891.81 325.436C891.549 325.149 891.146 325.007 890.6 325.01C889.83 325.013 889.287 325.234 888.971 325.671C888.655 326.108 888.494 326.742 888.489 327.571L888.466 331.215L887.413 331.219L887.456 324.263L888.307 324.259L888.459 325.261L888.516 325.261C888.666 325.014 888.856 324.808 889.085 324.642C889.315 324.472 889.572 324.344 889.856 324.258C890.14 324.168 890.438 324.122 890.751 324.12Z" fill="#7389F4"/>
</g>
<defs>
<filter id="filter0_d_122_1362" x="-20" y="0" width="1480" height="680" filterUnits="userSpaceOnUse" color-interpolation-filters="sRGB">
<feFlood flood-opacity="0" result="BackgroundImageFix"/>
<feColorMatrix in="SourceAlpha" type="matrix" values="0 0 0 0 0 0 0 0 0 0 0 0 0 0 0 0 0 0 127 0" result="hardAlpha"/>
<feOffset dy="4"/>
<feGaussianBlur stdDeviation="10"/>
<feColorMatrix type="matrix" values="0 0 0 0 0 0 0 0 0 0 0 0 0 0 0 0 0 0 0.25 0"/>
<feBlend mode="normal" in2="BackgroundImageFix" result="effect1_dropShadow_122_1362"/>
<feBlend mode="normal" in="SourceGraphic" in2="effect1_dropShadow_122_1362" result="shape"/>
</filter>
<filter id="filter1_d_122_1362" x="-229.225" y="178.867" width="1257.86" height="1094.4" filterUnits="userSpaceOnUse" color-interpolation-filters="sRGB">
<feFlood flood-opacity="0" result="BackgroundImageFix"/>
<feColorMatrix in="SourceAlpha" type="matrix" values="0 0 0 0 0 0 0 0 0 0 0 0 0 0 0 0 0 0 127 0" result="hardAlpha"/>
<feOffset dy="4"/>
<feGaussianBlur stdDeviation="2"/>
<feColorMatrix type="matrix" values="0 0 0 0 0 0 0 0 0 0 0 0 0 0 0 0 0 0 0.25 0"/>
<feBlend mode="normal" in2="BackgroundImageFix" result="effect1_dropShadow_122_1362"/>
<feBlend mode="normal" in="SourceGraphic" in2="effect1_dropShadow_122_1362" result="shape"/>
</filter>
<filter id="filter2_i_122_1362" x="-522.152" y="-581.144" width="1776.78" height="1096.93" filterUnits="userSpaceOnUse" color-interpolation-filters="sRGB">
<feFlood flood-opacity="0" result="BackgroundImageFix"/>
<feBlend mode="normal" in="SourceGraphic" in2="BackgroundImageFix" result="shape"/>
<feColorMatrix in="SourceAlpha" type="matrix" values="0 0 0 0 0 0 0 0 0 0 0 0 0 0 0 0 0 0 127 0" result="hardAlpha"/>
<feOffset dy="4"/>
<feGaussianBlur stdDeviation="2"/>
<feComposite in2="hardAlpha" operator="arithmetic" k2="-1" k3="1"/>
<feColorMatrix type="matrix" values="0 0 0 0 0 0 0 0 0 0 0 0 0 0 0 0 0 0 0.25 0"/>
<feBlend mode="normal" in2="shape" result="effect1_innerShadow_122_1362"/>
</filter>
<linearGradient id="paint0_linear_122_1362" x1="852.902" y1="315.059" x2="790.822" y2="312.769" gradientUnits="userSpaceOnUse">
<stop stop-color="#7389F4"/>
<stop offset="0.389082" stop-color="#8978DC"/>
<stop offset="0.677083" stop-color="#9568C2"/>
<stop offset="1" stop-color="#9A59A9"/>
</linearGradient>
<clipPath id="clip0_122_1362">
<rect width="1440" height="640" fill="white" transform="translate(0 16)"/>
</clipPath>
</defs>
</svg>
